<svg width="52" height="58" viewBox="0 0 52 58" fill="none" xmlns="http://www.w3.org/2000/svg">
<g opacity="0.7">
<path opacity="0.8" d="M7.11785 49.538L6.01185 53.542H8.20985L7.11785 49.538ZM5.57785 55.166L5.18585 56.608C5.11119 56.8693 4.92919 57 4.63985 57H3.44985C3.18852 57 3.05785 56.8833 3.05785 56.65C3.05785 56.5753 3.07652 56.4727 3.11385 56.342L5.71785 47.676C5.82052 47.34 6.06785 47.172 6.45985 47.172H7.77585C8.16785 47.172 8.41519 47.34 8.51785 47.676L11.1219 56.356C11.1592 56.4867 11.1779 56.5847 11.1779 56.65C11.1779 56.8833 11.0472 57 10.7859 57H9.59585C9.30652 57 9.12452 56.8693 9.04985 56.608L8.65785 55.166H5.57785ZM13.6394 49.594L13.7234 49.832C13.9381 49.3747 14.4001 49.146 15.1094 49.146H15.7394C16.6167 49.146 17.2327 49.3467 17.5874 49.748C17.9514 50.1493 18.1334 50.84 18.1334 51.82V56.496C18.1334 56.832 17.9654 57 17.6294 57H16.6494C16.3134 57 16.1454 56.832 16.1454 56.496V51.904C16.1454 51.4653 16.0801 51.162 15.9494 50.994C15.8187 50.826 15.5621 50.742 15.1794 50.742H14.7454C14.3627 50.742 14.1061 50.826 13.9754 50.994C13.8447 51.162 13.7794 51.4653 13.7794 51.904V56.496C13.7794 56.832 13.6114 57 13.2754 57H12.2954C11.9594 57 11.7914 56.832 11.7914 56.496V49.748C11.7914 49.412 11.9594 49.244 12.2954 49.244H13.0934C13.3734 49.244 13.5554 49.3607 13.6394 49.594ZM25.5133 47.256V56.496C25.5133 56.832 25.3453 57 25.0093 57H24.2113C23.9313 57 23.7493 56.8833 23.6653 56.65L23.5813 56.412C23.3666 56.8693 22.9046 57.098 22.1953 57.098H21.5233C20.6366 57.098 20.0113 56.8973 19.6473 56.496C19.2926 56.0947 19.1153 55.404 19.1153 54.424V51.82C19.1153 50.84 19.2926 50.1493 19.6473 49.748C20.0113 49.3467 20.6366 49.146 21.5233 49.146H22.1393C22.8486 49.146 23.3106 49.3747 23.5253 49.832V47.256C23.5253 46.92 23.6933 46.752 24.0293 46.752H25.0093C25.3453 46.752 25.5133 46.92 25.5133 47.256ZM21.1033 51.904V54.34C21.1033 54.7787 21.1686 55.082 21.2993 55.25C21.43 55.418 21.6866 55.502 22.0693 55.502H22.5593C22.942 55.502 23.1986 55.418 23.3293 55.25C23.46 55.082 23.5253 54.7787 23.5253 54.34V51.904C23.5253 51.4653 23.46 51.162 23.3293 50.994C23.1986 50.826 22.942 50.742 22.5593 50.742H22.0693C21.6866 50.742 21.43 50.826 21.2993 50.994C21.1686 51.162 21.1033 51.4653 21.1033 51.904ZM30.6552 50.952H28.6252V56.496C28.6252 56.832 28.4572 57 28.1212 57H27.1412C26.8052 57 26.6372 56.832 26.6372 56.496V49.748C26.6372 49.412 26.8052 49.244 27.1412 49.244H27.9392C28.2192 49.244 28.4012 49.3607 28.4852 49.594L28.5692 49.832C29.1292 49.44 29.7452 49.244 30.4172 49.244H30.6552C30.9725 49.244 31.1312 49.4027 31.1312 49.72V50.476C31.1312 50.7933 30.9725 50.952 30.6552 50.952ZM36.0058 54.34V51.904C36.0058 51.4653 35.9405 51.162 35.8098 50.994C35.6792 50.826 35.4225 50.742 35.0398 50.742H34.5498C34.1672 50.742 33.9105 50.826 33.7798 50.994C33.6492 51.162 33.5838 51.4653 33.5838 51.904V54.34C33.5838 54.7787 33.6492 55.082 33.7798 55.25C33.9105 55.418 34.1672 55.502 34.5498 55.502H35.0398C35.4225 55.502 35.6792 55.418 35.8098 55.25C35.9405 55.082 36.0058 54.7787 36.0058 54.34ZM31.5958 54.382V51.862C31.5958 50.8727 31.8012 50.1727 32.2118 49.762C32.6318 49.3513 33.3692 49.146 34.4238 49.146H35.1658C36.2205 49.146 36.9532 49.3513 37.3638 49.762C37.7838 50.1727 37.9938 50.8727 37.9938 51.862V54.382C37.9938 55.3713 37.7838 56.0713 37.3638 56.482C36.9532 56.8927 36.2205 57.098 35.1658 57.098H34.4238C33.3692 57.098 32.6318 56.8927 32.2118 56.482C31.8012 56.0713 31.5958 55.3713 31.5958 54.382ZM41.011 49.748V56.496C41.011 56.832 40.843 57 40.507 57H39.527C39.191 57 39.023 56.832 39.023 56.496V49.748C39.023 49.412 39.191 49.244 39.527 49.244H40.507C40.843 49.244 41.011 49.412 41.011 49.748ZM41.011 47.256V47.97C41.011 48.306 40.843 48.474 40.507 48.474H39.527C39.191 48.474 39.023 48.306 39.023 47.97V47.256C39.023 46.92 39.191 46.752 39.527 46.752H40.507C40.843 46.752 41.011 46.92 41.011 47.256ZM48.4373 47.256V56.496C48.4373 56.832 48.2693 57 47.9333 57H47.1353C46.8553 57 46.6733 56.8833 46.5893 56.65L46.5053 56.412C46.2906 56.8693 45.8286 57.098 45.1193 57.098H44.4473C43.5606 57.098 42.9353 56.8973 42.5713 56.496C42.2166 56.0947 42.0393 55.404 42.0393 54.424V51.82C42.0393 50.84 42.2166 50.1493 42.5713 49.748C42.9353 49.3467 43.5606 49.146 44.4473 49.146H45.0633C45.7726 49.146 46.2346 49.3747 46.4493 49.832V47.256C46.4493 46.92 46.6173 46.752 46.9533 46.752H47.9333C48.2693 46.752 48.4373 46.92 48.4373 47.256ZM44.0273 51.904V54.34C44.0273 54.7787 44.0926 55.082 44.2233 55.25C44.3539 55.418 44.6106 55.502 44.9933 55.502H45.4833C45.8659 55.502 46.1226 55.418 46.2533 55.25C46.3839 55.082 46.4493 54.7787 46.4493 54.34V51.904C46.4493 51.4653 46.3839 51.162 46.2533 50.994C46.1226 50.826 45.8659 50.742 45.4833 50.742H44.9933C44.6106 50.742 44.3539 50.826 44.2233 50.994C44.0926 51.162 44.0273 51.4653 44.0273 51.904Z" fill="#C4C4C4"/>
<path opacity="0.8" d="M16.7552 28.0903C16.7552 28.9766 17.4785 29.7 18.3686 29.7H20.213V34.2599C20.213 35.415 21.1409 36.358 22.2808 36.358C23.4246 36.358 24.3487 35.4188 24.3487 34.2599V29.6962H27.5679V34.2561C27.5679 35.4112 28.4958 36.3543 29.6358 36.3543C30.7796 36.3543 31.7037 35.415 31.7037 34.2561V29.6962H33.5481C34.4381 29.6962 35.1615 28.9728 35.1615 28.0866V13.1191H16.7552V28.0903ZM30.2796 5.3627L31.9801 2.90095C32.0786 2.75703 32.0559 2.56388 31.9233 2.4692C31.7908 2.3783 31.6014 2.42375 31.5029 2.56767L29.7381 5.12789C28.5754 4.66963 27.2801 4.41588 25.9204 4.41588C24.5608 4.41588 23.2655 4.66963 22.1028 5.12789L20.338 2.57146C20.2395 2.42754 20.0501 2.3783 19.9176 2.47299C19.785 2.56388 19.7623 2.75325 19.8608 2.90474L21.5613 5.36649C18.8571 6.62388 16.9635 9.00609 16.7211 11.7898H35.1274C34.8774 9.00231 32.98 6.62009 30.2796 5.3627ZM22.0347 9.2447C21.8332 9.2447 21.6362 9.18494 21.4687 9.073C21.3011 8.96105 21.1705 8.80194 21.0934 8.61578C21.0163 8.42962 20.9962 8.22478 21.0355 8.02715C21.0748 7.82953 21.1718 7.648 21.3143 7.50552C21.4568 7.36304 21.6383 7.26601 21.8359 7.2267C22.0335 7.18739 22.2384 7.20756 22.4245 7.28467C22.6107 7.36178 22.7698 7.49236 22.8818 7.6599C22.9937 7.82744 23.0535 8.02441 23.0535 8.22591C23.0528 8.49589 22.9452 8.75462 22.7543 8.94553C22.5634 9.13643 22.3047 9.244 22.0347 9.2447ZM29.9274 9.2447C29.7259 9.2447 29.5289 9.18494 29.3614 9.073C29.1939 8.96105 29.0633 8.80194 28.9862 8.61578C28.9091 8.42962 28.8889 8.22478 28.9282 8.02715C28.9675 7.82953 29.0646 7.648 29.207 7.50552C29.3495 7.36304 29.531 7.26601 29.7287 7.2267C29.9263 7.18739 30.1311 7.20756 30.3173 7.28467C30.5035 7.36178 30.6626 7.49236 30.7745 7.6599C30.8865 7.82744 30.9462 8.02441 30.9462 8.22591C30.9455 8.49589 30.8379 8.75462 30.647 8.94553C30.4561 9.13643 30.1974 9.244 29.9274 9.2447ZM38.3883 13.0585C37.2445 13.0585 36.3204 13.9978 36.3204 15.1567V23.3524C36.3204 24.5076 37.2483 25.4506 38.3883 25.4506C39.532 25.4506 40.4561 24.5113 40.4561 23.3524V15.1529C40.4599 13.994 39.5358 13.0585 38.3883 13.0585ZM13.4451 13.0585C12.3013 13.0585 11.3772 13.9978 11.3772 15.1567V23.3524C11.3772 24.5076 12.3051 25.4506 13.4451 25.4506C14.5888 25.4506 15.5129 24.5113 15.5129 23.3524V15.1529C15.5129 13.994 14.585 13.0585 13.4451 13.0585Z" fill="#C4C4C4"/>
</g>
</svg>
