<svg width="150" height="446" viewBox="0 0 150 446" fill="none" xmlns="http://www.w3.org/2000/svg">
<g clip-path="url(#clip0)">
<rect width="2" height="698" transform="matrix(1 0 0 -1 43 520.5)" fill="url(#paint0_linear)"/>
<rect width="2" height="592" transform="matrix(1 0 0 -1 105 467.5)" fill="url(#paint1_linear)"/>
</g>
<path d="M75 296L139.952 333.5V408.5L75 446L10.0481 408.5L10.0481 333.5L75 296Z" fill="white"/>
<g filter="url(#filter0_di)">
<path fill-rule="evenodd" clip-rule="evenodd" d="M98.1057 335.712C98.118 336.191 98.1251 336.671 98.1269 337.15H98.126C98.1289 337.72 98.1289 338.29 98.1289 338.859V356.707C98.1289 356.802 98.1289 356.897 98.1289 356.992C98.1291 357.467 98.1292 357.941 98.126 358.416C98.1231 358.896 98.1173 359.375 98.1048 359.854C98.0768 360.899 98.0152 361.953 97.8293 362.986C97.6405 364.034 97.3332 365.01 96.8477 365.963C95.8885 367.848 94.3564 369.381 92.4716 370.34C91.5337 370.813 90.5305 371.144 89.4951 371.321C88.4625 371.507 87.4078 371.567 86.3626 371.596C85.8829 371.609 85.4042 371.615 84.9245 371.618C84.4501 371.621 83.9752 371.621 83.5012 371.62C83.4063 371.62 83.3114 371.62 83.2166 371.62H65.3693C65.2741 371.62 65.1789 371.62 65.0838 371.62C64.609 371.621 64.1349 371.621 63.6614 371.618C63.1817 371.615 62.702 371.609 62.2223 371.596C61.1781 371.568 60.1234 371.507 59.0907 371.321C58.0417 371.132 57.0669 370.825 56.1143 370.34C54.229 369.381 52.6965 367.848 51.7372 365.963C51.2639 365.024 50.9334 364.02 50.7566 362.984C50.5707 361.952 50.51 360.898 50.4811 359.853C50.4686 359.374 50.4628 358.895 50.4589 358.415C50.4561 357.846 50.4561 357.276 50.4561 356.706V338.859C50.4561 338.29 50.4561 337.72 50.4589 337.15C50.4618 336.671 50.4676 336.193 50.4811 335.711C50.509 334.668 50.5707 333.614 50.7566 332.58C50.9444 331.531 51.2517 330.557 51.7372 329.603C52.2142 328.667 52.8357 327.811 53.579 327.069C54.5108 326.138 55.6168 325.399 56.8338 324.895C57.5602 324.598 58.3166 324.381 59.0898 324.246C59.8652 324.107 60.6522 324.037 61.4372 324C61.6993 323.987 61.9613 323.977 62.2223 323.971C62.702 323.958 63.1817 323.952 63.6614 323.949C64.2307 323.946 64.799 323.946 65.3693 323.946H83.2166C83.7868 323.946 84.3561 323.946 84.9254 323.949C85.4051 323.951 85.8839 323.957 86.3645 323.971C87.4087 323.999 88.4625 324.06 89.4971 324.246C90.5325 324.423 91.5356 324.754 92.4736 325.227C94.3579 326.187 95.8895 327.719 96.8487 329.604C97.3222 330.542 97.653 331.546 97.8303 332.581C98.0162 333.614 98.0768 334.668 98.1057 335.712ZM88.2294 353.37L88.2323 353.373L88.2332 353.374C92.329 358.414 91.2145 363.817 90.6895 362.797C88.5492 358.632 84.5603 359.695 82.5403 360.743C82.3737 360.842 82.2022 360.938 82.0298 361.029C82.019 361.037 82.0071 361.043 81.9954 361.05C81.9853 361.056 81.9752 361.062 81.9662 361.068L81.9691 361.063C77.7664 363.296 72.1236 363.462 66.4481 361.023C61.8295 359.023 57.9232 355.673 55.2415 351.414C56.5458 352.379 57.9422 353.212 59.4105 353.901C65.4078 356.709 71.431 356.507 75.6935 353.898C69.6269 349.232 64.562 343.156 60.6791 338.232C59.9326 337.349 59.2525 336.432 58.6813 335.478C63.331 339.734 70.6768 345.079 73.3123 346.557C67.7177 340.647 62.7887 333.368 63.0198 333.601C71.8298 342.48 79.9598 347.498 79.9598 347.498C80.2033 347.63 80.4417 347.771 80.6745 347.921C80.8411 347.494 80.9914 347.053 81.1166 346.594C82.524 341.452 80.9413 335.572 77.3599 330.717C85.5313 335.624 90.3611 344.945 88.3825 352.828C88.3461 352.97 88.3056 353.109 88.2651 353.248C88.2532 353.288 88.2412 353.329 88.2294 353.37Z" fill="#F05138"/>
<path d="M32.6426 397.892C33.0153 401.199 36.17 403.367 40.5509 403.367C44.7132 403.367 47.7147 401.2 47.7147 398.198C47.7147 395.614 45.8961 394.036 41.7117 392.985L37.6592 391.954C31.8325 390.509 29.2037 387.88 29.2037 383.543C29.2037 378.198 33.8698 374.496 40.5076 374.496C46.947 374.496 51.5254 378.22 51.6795 383.587H47.4074C47.079 380.301 44.4059 378.285 40.3978 378.285C36.432 378.285 33.6723 380.323 33.6723 383.301C33.6723 385.623 35.3811 387.004 39.5867 388.077L42.961 388.954C49.4891 390.553 52.1611 393.094 52.1611 397.672C52.1611 403.5 47.5384 407.157 40.1782 407.157C33.3438 407.157 28.6778 403.521 28.3271 397.891H32.6426V397.892ZM79.2953 406.631H75.002L69.9853 389.151H69.8987L64.9032 406.631H60.6109L54.2582 383.739H58.4195L62.8447 402.118H62.9323L67.9268 383.739H71.9581L76.996 402.118H77.0836L81.5088 383.739H85.6268L79.2953 406.631ZM88.3981 377.584C88.3981 376.205 89.5386 375.087 90.918 375.087C92.3205 375.087 93.4591 376.205 93.4591 377.584C93.4591 378.965 92.3205 380.103 90.918 380.103C90.2511 380.099 89.6126 379.833 89.141 379.361C88.6695 378.89 88.4028 378.251 88.3991 377.584H88.3981ZM88.8373 383.739H93.0208V406.631H88.8373V383.739ZM120.344 387.114V383.739H115.919V378.263H111.756V383.739H103.759V381.724C103.78 379.687 104.568 378.833 106.453 378.833C107.066 378.833 107.68 378.899 108.184 378.987V375.699C107.452 375.585 106.712 375.526 105.972 375.524C101.502 375.524 99.6182 377.387 99.6182 381.658V383.738H96.4201V387.113H99.6182V406.63H103.78V387.114H111.757V400.628C111.757 405.054 113.443 406.761 117.825 406.761C118.767 406.761 119.84 406.696 120.323 406.587V403.169C119.799 403.234 119.272 403.271 118.745 403.279C116.795 403.279 115.919 402.359 115.919 400.3V387.114H120.344Z" fill="#4D4949"/>
</g>
<defs>
<filter id="filter0_di" x="24.3271" y="323.946" width="100.017" height="91.2116" filterUnits="userSpaceOnUse" color-interpolation-filters="sRGB">
<feFlood flood-opacity="0" result="BackgroundImageFix"/>
<feColorMatrix in="SourceAlpha" type="matrix" values="0 0 0 0 0 0 0 0 0 0 0 0 0 0 0 0 0 0 127 0"/>
<feOffset dy="4"/>
<feGaussianBlur stdDeviation="2"/>
<feColorMatrix type="matrix" values="0 0 0 0 0 0 0 0 0 0 0 0 0 0 0 0 0 0 0.25 0"/>
<feBlend mode="normal" in2="BackgroundImageFix" result="effect1_dropShadow"/>
<feBlend mode="normal" in="SourceGraphic" in2="effect1_dropShadow" result="shape"/>
<feColorMatrix in="SourceAlpha" type="matrix" values="0 0 0 0 0 0 0 0 0 0 0 0 0 0 0 0 0 0 127 0" result="hardAlpha"/>
<feOffset dy="4"/>
<feGaussianBlur stdDeviation="2"/>
<feComposite in2="hardAlpha" operator="arithmetic" k2="-1" k3="1"/>
<feColorMatrix type="matrix" values="0 0 0 0 0 0 0 0 0 0 0 0 0 0 0 0 0 0 0.25 0"/>
<feBlend mode="normal" in2="shape" result="effect2_innerShadow"/>
</filter>
<linearGradient id="paint0_linear" x1="1" y1="0" x2="1" y2="698" gradientUnits="userSpaceOnUse">
<stop stop-color="white"/>
<stop offset="0.731611" stop-color="white" stop-opacity="0"/>
</linearGradient>
<linearGradient id="paint1_linear" x1="1" y1="0" x2="1" y2="592" gradientUnits="userSpaceOnUse">
<stop stop-color="white"/>
<stop offset="0.731611" stop-color="white" stop-opacity="0"/>
</linearGradient>
<clipPath id="clip0">
<rect width="64" height="343" fill="white" transform="matrix(1 0 0 -1 43 343)"/>
</clipPath>
</defs>
</svg>
