<svg width="80" height="80" viewBox="0 0 80 80" fill="none" xmlns="http://www.w3.org/2000/svg">
<g opacity="0.7">
<path d="M58.1252 4.84375H21.8752C19.1174 4.84375 16.8752 7.08594 16.8752 9.84375V69.8438C16.8752 72.6016 19.1174 74.8438 21.8752 74.8438H58.1252C60.8831 74.8438 63.1252 72.6016 63.1252 69.8438V9.84375C63.1252 7.08594 60.8831 4.84375 58.1252 4.84375ZM57.5002 69.2188H22.5002V10.4688H57.5002V69.2188ZM36.8752 61.25C36.8752 62.0788 37.2045 62.8737 37.7905 63.4597C38.3766 64.0458 39.1714 64.375 40.0002 64.375C40.829 64.375 41.6239 64.0458 42.21 63.4597C42.796 62.8737 43.1252 62.0788 43.1252 61.25C43.1252 60.4212 42.796 59.6263 42.21 59.0403C41.6239 58.4542 40.829 58.125 40.0002 58.125C39.1714 58.125 38.3766 58.4542 37.7905 59.0403C37.2045 59.6263 36.8752 60.4212 36.8752 61.25Z" fill="white"/>
</g>
</svg>
