<svg width="150" height="446" viewBox="0 0 150 446" fill="none" xmlns="http://www.w3.org/2000/svg">
<g clip-path="url(#clip0)">
<rect x="43" y="-74.5" width="2" height="698" fill="url(#paint0_linear)"/>
<rect x="105" y="-21.5" width="2" height="592" fill="url(#paint1_linear)"/>
</g>
<path d="M75 0L139.952 37.5V112.5L75 150L10.0481 112.5L10.0481 37.5L75 0Z" fill="white"/>
<g clip-path="url(#clip1)" filter="url(#filter0_di)">
<path d="M69.2905 48.3078L58.108 67.5522L46.9871 48.3078L58.108 29.0635L69.2905 48.3078Z" fill="#59666C"/>
<path d="M80.4115 29.0635H58.108L69.2906 48.3078H91.594L80.4115 29.0635Z" fill="#BCAE79"/>
<path d="M80.4114 67.5522L91.5939 48.3079L102.715 67.5522L91.5939 86.7966L80.4114 67.5522Z" fill="#59666C"/>
<path d="M69.2905 86.7966H91.5273L80.4063 67.5522H58.108L69.2905 86.7966Z" fill="#BCAE79"/>
<path d="M34.0802 111.642V97.5978H31.8273V103.401H25.1558V97.5978H22.8721V111.642H25.1507V105.323H31.8222V111.642H34.0802ZM40.6081 111.642V97.5978H38.3295V111.642H40.6081ZM54.2385 107.384C54.2385 105.932 53.3917 104.526 51.5391 104.178V104.132C52.9709 103.641 53.9357 102.353 53.9357 100.926C53.9357 98.7737 52.3397 97.5108 49.2862 97.5108C47.5721 97.5108 45.9761 97.5569 44.8676 97.5824V111.627C46.4431 111.653 47.8492 111.699 48.7217 111.699C53.012 111.689 54.2385 109.209 54.2385 107.384ZM51.5596 101.299C51.5596 102.705 50.4563 103.569 48.3419 103.569C47.8698 103.569 47.4951 103.569 47.1205 103.544V99.377C47.6594 99.3514 48.2701 99.331 48.9064 99.331C50.9233 99.331 51.5596 100.154 51.5596 101.299ZM51.8419 107.43C51.8419 108.836 50.8566 109.843 48.7884 109.843C48.0597 109.843 47.4951 109.797 47.1462 109.751V105.282C47.4541 105.257 48.1777 105.257 48.4138 105.257C50.3844 105.257 51.8419 105.84 51.8419 107.43ZM65.0413 111.642V109.7H59.8734V105.323H64.7847V103.472H59.8734V99.4741H65.0413V97.6029H57.5948V111.642H65.0413ZM78.1996 111.642L74.4892 106.75C74.1351 106.279 73.6886 105.742 73.2934 105.252C75.5977 104.996 77.2861 103.564 77.2861 101.32C77.2861 98.5334 75.2898 97.5057 72.3543 97.5057C70.7582 97.5057 69.6036 97.5313 68.572 97.5978V111.642H70.8506V105.558H70.943L75.3359 111.642H78.1996ZM74.91 101.555C74.91 102.961 73.8066 103.897 71.9745 103.897C71.4818 103.897 71.0816 103.871 70.8711 103.851V99.4026C71.1996 99.377 71.6204 99.3566 72.0669 99.3566C73.9452 99.3566 74.91 100.037 74.91 101.555Z" fill="#59666C"/>
<path d="M92.4355 111.642V97.5978H90.2288V101.765C90.2288 103.825 90.3007 106.842 90.3674 108.437C89.849 107.409 89.2845 106.284 88.6533 105.252L84.0038 97.5978H81.017V111.642H83.2237V106.913C83.2237 104.924 83.1775 102.066 83.1057 100.686C83.5521 101.622 84.0448 102.629 84.6812 103.636L89.4949 111.617H92.4304L92.4355 111.642ZM107.498 111.642L102.376 97.5978H99.8409L94.7911 111.642H97.0954L98.1782 108.554H103.885L104.968 111.642H107.498ZM103.269 106.729H98.7581L100.354 102.378C100.636 101.632 100.847 100.855 101.011 100.154H101.057C101.221 100.926 101.411 101.581 101.694 102.307L103.269 106.729ZM117.033 99.4946V97.5978H107V99.4946H110.875V111.642H113.153V99.4946H117.033ZM126.83 111.642V109.7H121.662V105.323H126.573V103.472H121.662V99.4742H126.83V97.6029H119.383V111.642H126.83Z" fill="#BCAE79"/>
</g>
<defs>
<filter id="filter0_di" x="18.8721" y="29.0635" width="111.958" height="90.7191" filterUnits="userSpaceOnUse" color-interpolation-filters="sRGB">
<feFlood flood-opacity="0" result="BackgroundImageFix"/>
<feColorMatrix in="SourceAlpha" type="matrix" values="0 0 0 0 0 0 0 0 0 0 0 0 0 0 0 0 0 0 127 0"/>
<feOffset dy="4"/>
<feGaussianBlur stdDeviation="2"/>
<feColorMatrix type="matrix" values="0 0 0 0 0 0 0 0 0 0 0 0 0 0 0 0 0 0 0.25 0"/>
<feBlend mode="normal" in2="BackgroundImageFix" result="effect1_dropShadow"/>
<feBlend mode="normal" in="SourceGraphic" in2="effect1_dropShadow" result="shape"/>
<feColorMatrix in="SourceAlpha" type="matrix" values="0 0 0 0 0 0 0 0 0 0 0 0 0 0 0 0 0 0 127 0" result="hardAlpha"/>
<feOffset dy="4"/>
<feGaussianBlur stdDeviation="2"/>
<feComposite in2="hardAlpha" operator="arithmetic" k2="-1" k3="1"/>
<feColorMatrix type="matrix" values="0 0 0 0 0 0 0 0 0 0 0 0 0 0 0 0 0 0 0.25 0"/>
<feBlend mode="normal" in2="shape" result="effect2_innerShadow"/>
</filter>
<linearGradient id="paint0_linear" x1="44" y1="-74.5" x2="44" y2="623.5" gradientUnits="userSpaceOnUse">
<stop stop-color="white"/>
<stop offset="0.731611" stop-color="white" stop-opacity="0"/>
</linearGradient>
<linearGradient id="paint1_linear" x1="106" y1="-21.5" x2="106" y2="570.5" gradientUnits="userSpaceOnUse">
<stop stop-color="white"/>
<stop offset="0.731611" stop-color="white" stop-opacity="0"/>
</linearGradient>
<clipPath id="clip0">
<rect width="64" height="343" fill="white" transform="translate(43 103)"/>
</clipPath>
<clipPath id="clip1">
<rect width="103.958" height="82.7191" fill="white" transform="translate(22.8721 29.0635)"/>
</clipPath>
</defs>
</svg>
