<svg width="150" height="367" viewBox="0 0 150 367" fill="none" xmlns="http://www.w3.org/2000/svg">
<g clip-path="url(#clip0)">
<rect width="2" height="698" transform="matrix(1 0 0 -1 43 489.5)" fill="url(#paint0_linear)"/>
<rect width="2" height="592" transform="matrix(1 0 0 -1 105 436.5)" fill="url(#paint1_linear)"/>
</g>
<path d="M75 217L139.952 254.5V329.5L75 367L10.0481 329.5L10.0481 254.5L75 217Z" fill="white"/>
<g filter="url(#filter0_di)">
<path d="M75.242 243.336L28.2025 260.11L35.3772 322.308L75.242 344.387L115.107 322.308L122.281 260.11L75.242 243.336Z" fill="#DD0031"/>
<path d="M75.242 243.336V254.553V254.502V305.685V344.387L115.107 322.308L122.281 260.11L75.242 243.336Z" fill="#C3002F"/>
<path d="M75.242 254.502L45.836 320.438H56.8001L62.7116 305.685H87.6713L93.5828 320.438H104.547L75.242 254.502ZM83.8314 296.59H66.6526L75.242 275.925L83.8314 296.59Z" fill="white"/>
</g>
<defs>
<filter id="filter0_di" x="8.08484" y="228.178" width="134.314" height="134.314" filterUnits="userSpaceOnUse" color-interpolation-filters="sRGB">
<feFlood flood-opacity="0" result="BackgroundImageFix"/>
<feColorMatrix in="SourceAlpha" type="matrix" values="0 0 0 0 0 0 0 0 0 0 0 0 0 0 0 0 0 0 127 0"/>
<feOffset dy="4"/>
<feGaussianBlur stdDeviation="2"/>
<feColorMatrix type="matrix" values="0 0 0 0 0 0 0 0 0 0 0 0 0 0 0 0 0 0 0.25 0"/>
<feBlend mode="normal" in2="BackgroundImageFix" result="effect1_dropShadow"/>
<feBlend mode="normal" in="SourceGraphic" in2="effect1_dropShadow" result="shape"/>
<feColorMatrix in="SourceAlpha" type="matrix" values="0 0 0 0 0 0 0 0 0 0 0 0 0 0 0 0 0 0 127 0" result="hardAlpha"/>
<feOffset dy="4"/>
<feGaussianBlur stdDeviation="2"/>
<feComposite in2="hardAlpha" operator="arithmetic" k2="-1" k3="1"/>
<feColorMatrix type="matrix" values="0 0 0 0 0 0 0 0 0 0 0 0 0 0 0 0 0 0 0.25 0"/>
<feBlend mode="normal" in2="shape" result="effect2_innerShadow"/>
</filter>
<linearGradient id="paint0_linear" x1="1" y1="0" x2="1" y2="698" gradientUnits="userSpaceOnUse">
<stop stop-color="white"/>
<stop offset="0.731611" stop-color="white" stop-opacity="0"/>
</linearGradient>
<linearGradient id="paint1_linear" x1="1" y1="0" x2="1" y2="592" gradientUnits="userSpaceOnUse">
<stop stop-color="white"/>
<stop offset="0.731611" stop-color="white" stop-opacity="0"/>
</linearGradient>
<clipPath id="clip0">
<rect width="64" height="281" fill="white" transform="matrix(1 0 0 -1 43 281)"/>
</clipPath>
</defs>
</svg>
