<svg width="150" height="446" viewBox="0 0 150 446" fill="none" xmlns="http://www.w3.org/2000/svg">
<g clip-path="url(#clip0)">
<rect width="2" height="698" transform="matrix(1 0 0 -1 43 520.5)" fill="url(#paint0_linear)"/>
<rect width="2" height="592" transform="matrix(1 0 0 -1 105 467.5)" fill="url(#paint1_linear)"/>
</g>
<path d="M0 371L37.5 435.952H112.5L150 371L112.5 306.048H37.5L0 371Z" fill="white"/>
<g filter="url(#filter0_di)">
<g clip-path="url(#clip1)">
<path d="M74.4909 421.408C62.7502 421.408 63.4833 416.316 63.4833 416.316L63.4964 411.042H74.7003V409.458H59.0463C59.0463 409.458 51.5334 410.31 51.5334 398.464C51.5334 386.617 58.0908 387.037 58.0908 387.037H62.0043V392.534C62.0043 392.534 61.7934 399.092 68.457 399.092C75.1206 399.092 79.5692 399.092 79.5692 399.092C79.5692 399.092 85.8125 398.991 85.8125 405.126C85.8125 411.26 85.8125 415.269 85.8125 415.269C85.8125 415.269 86.7604 421.408 74.4909 421.408ZM68.313 417.861C69.4277 417.861 70.3287 416.96 70.3287 415.845C70.3287 414.73 69.4277 413.83 68.313 413.83C67.1983 413.83 66.2974 414.73 66.2974 415.845C66.2974 416.96 67.1983 417.861 68.313 417.861Z" fill="url(#paint2_linear)"/>
<path d="M74.8243 375.4C86.565 375.4 85.8318 380.492 85.8318 380.492L85.8187 385.767H74.6149V387.35H90.2688C90.2688 387.35 97.7817 386.498 97.7817 398.345C97.7817 410.191 91.2243 409.771 91.2243 409.771H87.3108V404.274C87.3108 404.274 87.5217 397.717 80.8581 397.717C74.1945 397.717 69.7459 397.717 69.7459 397.717C69.7459 397.717 63.5026 397.817 63.5026 391.683C63.5026 385.548 63.5026 381.539 63.5026 381.539C63.5026 381.539 62.5547 375.4 74.8243 375.4ZM81.0021 378.947C79.8874 378.947 78.9864 379.848 78.9864 380.963C78.9864 382.078 79.8874 382.979 81.0021 382.979C82.1168 382.979 83.0177 382.078 83.0177 380.963C83.0177 379.848 82.1168 378.947 81.0021 378.947Z" fill="url(#paint3_linear)"/>
</g>
<path fill-rule="evenodd" clip-rule="evenodd" d="M28.3247 355.623C28.3066 352.19 30.8242 350.143 34.8418 351.074V360.173C30.7734 361.412 28.3417 358.905 28.3247 355.623ZM34.9647 373.33H40.498V347.139C35.1941 346.272 30.1143 345.722 26.4803 347.754C21.8011 350.37 21.4249 358.684 25.1275 362.386C27.0048 364.263 30.7842 365.585 34.8418 364.723V372.961C34.8312 373.136 34.8214 373.31 34.9647 373.33Z" fill="black"/>
<path fill-rule="evenodd" clip-rule="evenodd" d="M49.4743 367.551H43.941V373.33H49.4743V367.551Z" fill="black"/>
<path fill-rule="evenodd" clip-rule="evenodd" d="M115.875 350.828C121.907 348.484 122.574 361.625 116.489 360.419C112.711 359.67 112.832 352.01 115.875 350.828ZM116.12 364.969C120.727 365.461 124.202 363.428 125.589 360.296C127.954 354.952 125.459 348.819 121.654 347.016C119.682 346.081 117.617 345.992 115.752 346.155C109.986 346.658 106.349 352.534 108.374 359.067C108.691 360.089 109.047 360.714 109.235 361.034C110.488 363.165 112.604 364.593 116.12 364.969Z" fill="black"/>
<path fill-rule="evenodd" clip-rule="evenodd" d="M57.0982 352.918C55.5677 350.346 59.413 349.73 61.8936 350.459V354.271C59.9876 354.005 57.8182 354.129 57.0982 352.918ZM66.8121 346.893C62.2413 346.63 55.295 345.073 52.7944 348.123C51.3253 349.915 51.4833 353.332 52.7944 355.009C54.4887 357.175 58.1873 357.648 61.5247 357.96C61.8277 358.706 61.6234 359.92 61.2788 360.419C58.226 361.197 55.1929 359.992 53.0404 359.067V363.37C56.2914 364.864 63.8215 366.437 66.0745 363.001C67.2577 361.197 66.8121 358.051 66.8121 355.255V346.893Z" fill="black"/>
<path fill-rule="evenodd" clip-rule="evenodd" d="M86.2405 346.647H80.7071V353.779C80.7071 356.127 81.087 359.105 79.8462 360.05C78.8745 360.791 76.5692 360.419 75.1738 360.05V346.647H69.6403V363.739C75.2968 365.208 85.5071 366.784 86.2405 359.681C86.6021 356.179 85.9725 350.926 86.2405 346.647Z" fill="black"/>
<path fill-rule="evenodd" clip-rule="evenodd" d="M94.479 352.549C95.4101 351.043 97.9315 350.478 100.012 351.443C99.8979 354.321 99.858 357.273 99.8893 360.296C95.1072 361.56 92.2573 356.143 94.479 352.549ZM108.374 364.231C107.881 362.756 107.161 361.509 106.529 360.173C105.959 360.045 105.465 360.4 105.177 360.173C105.05 354.179 106.453 346.053 104.07 341.729C102.635 339.125 99.9933 337.454 95.9544 337.179C93.0123 336.978 90.7287 337.459 88.5767 338.286V343.45C91.1008 341.976 97.479 340.775 99.2745 343.819C99.8028 344.715 99.7692 345.64 100.012 347.016C98.8562 346.955 97.734 346.42 96.3234 346.401C90.5242 346.324 86.9365 350.942 88.3307 357.345C88.87 359.822 90.3212 361.816 92.2657 363.001C96.304 365.463 102.512 365.276 108.374 364.231Z" fill="black"/>
<path fill-rule="evenodd" clip-rule="evenodd" d="M49.4744 364.625C49.4681 360.55 49.469 357.622 49.4686 352.672C49.2336 347.807 49.2883 343.933 47.507 341.606C47.1557 341.147 46.4097 340.477 45.7855 340.007C45.2613 339.612 44.2622 338.812 43.6951 338.777C43.1234 338.742 41.6546 339.571 40.9898 339.884C40.117 340.295 39.31 340.841 38.4077 341.114C40.5125 342.418 42.5105 343.396 43.3262 346.032C44.0356 348.325 43.9411 351.648 43.9411 354.886C43.9411 358.083 43.9553 361.8 43.9553 364.623L49.4744 364.624V364.625Z" fill="black"/>
</g>
<defs>
<filter id="filter0_di" x="16.1208" y="336.384" width="116.897" height="93.0235" filterUnits="userSpaceOnUse" color-interpolation-filters="sRGB">
<feFlood flood-opacity="0" result="BackgroundImageFix"/>
<feColorMatrix in="SourceAlpha" type="matrix" values="0 0 0 0 0 0 0 0 0 0 0 0 0 0 0 0 0 0 127 0"/>
<feOffset dy="4"/>
<feGaussianBlur stdDeviation="2"/>
<feColorMatrix type="matrix" values="0 0 0 0 0 0 0 0 0 0 0 0 0 0 0 0 0 0 0.25 0"/>
<feBlend mode="normal" in2="BackgroundImageFix" result="effect1_dropShadow"/>
<feBlend mode="normal" in="SourceGraphic" in2="effect1_dropShadow" result="shape"/>
<feColorMatrix in="SourceAlpha" type="matrix" values="0 0 0 0 0 0 0 0 0 0 0 0 0 0 0 0 0 0 127 0" result="hardAlpha"/>
<feOffset dy="4"/>
<feGaussianBlur stdDeviation="2"/>
<feComposite in2="hardAlpha" operator="arithmetic" k2="-1" k3="1"/>
<feColorMatrix type="matrix" values="0 0 0 0 0 0 0 0 0 0 0 0 0 0 0 0 0 0 0.25 0"/>
<feBlend mode="normal" in2="shape" result="effect2_innerShadow"/>
</filter>
<linearGradient id="paint0_linear" x1="1" y1="0" x2="1" y2="698" gradientUnits="userSpaceOnUse">
<stop stop-color="white"/>
<stop offset="0.731611" stop-color="white" stop-opacity="0"/>
</linearGradient>
<linearGradient id="paint1_linear" x1="1" y1="0" x2="1" y2="592" gradientUnits="userSpaceOnUse">
<stop stop-color="white"/>
<stop offset="0.731611" stop-color="white" stop-opacity="0"/>
</linearGradient>
<linearGradient id="paint2_linear" x1="55.978" y1="417.386" x2="78.8464" y2="394.441" gradientUnits="userSpaceOnUse">
<stop stop-color="#387EB8"/>
<stop offset="1" stop-color="#366994"/>
</linearGradient>
<linearGradient id="paint3_linear" x1="70.0456" y1="402.79" x2="94.6064" y2="379.259" gradientUnits="userSpaceOnUse">
<stop stop-color="#FFE052"/>
<stop offset="1" stop-color="#FFC331"/>
</linearGradient>
<clipPath id="clip0">
<rect width="64" height="343" fill="white" transform="matrix(1 0 0 -1 43 343)"/>
</clipPath>
<clipPath id="clip1">
<rect width="46.2482" height="46.0074" fill="white" transform="matrix(1 0 0 -1 51.5334 421.408)"/>
</clipPath>
</defs>
</svg>
