<svg width="150" height="367" viewBox="0 0 150 367" fill="none" xmlns="http://www.w3.org/2000/svg">
<g clip-path="url(#clip0)">
<rect width="2" height="698" transform="matrix(1 0 0 -1 43 489.5)" fill="url(#paint0_linear)"/>
<rect width="2" height="592" transform="matrix(1 0 0 -1 105 436.5)" fill="url(#paint1_linear)"/>
</g>
<path d="M75 217L139.952 254.5V329.5L75 367L10.0481 329.5L10.0481 254.5L75 217Z" fill="white"/>
<g filter="url(#filter0_di)">
<path d="M23.2631 311.301V272.994H32.5823V276.427H27.6395V307.937H32.5823V311.37L23.2631 311.301Z" fill="#F1592A"/>
<path d="M54.8935 291.77C54.8935 298.755 50.6544 302.737 44.9049 302.737C39.1555 302.737 35.3282 298.257 35.3282 292.13C35.3282 285.729 39.3443 281.215 45.2139 281.215C51.0834 281.215 54.8935 285.917 54.8935 291.77ZM39.3443 292.079C39.3443 296.318 41.4724 299.682 45.128 299.682C48.7836 299.682 50.8775 296.249 50.8775 291.924C50.8775 287.994 48.9381 284.287 45.128 284.287C41.318 284.287 39.3099 287.874 39.3099 292.165L39.3443 292.079Z" fill="#F1592A"/>
<path d="M58.1201 281.936C59.9452 281.621 61.7944 281.466 63.6464 281.473C65.727 281.269 67.8184 281.732 69.619 282.794C70.2941 283.192 70.8505 283.763 71.2308 284.448C71.611 285.133 71.8011 285.907 71.7815 286.69C71.7568 287.708 71.4118 288.692 70.7955 289.502C70.1793 290.313 69.3232 290.908 68.349 291.204C69.5362 291.445 70.6034 292.09 71.3697 293.028C72.136 293.966 72.5544 295.141 72.5538 296.352C72.5668 297.173 72.3927 297.986 72.0448 298.729C71.6969 299.473 71.1842 300.127 70.5458 300.643C69.0698 301.947 66.6156 302.582 62.8226 302.582C61.2623 302.59 59.7031 302.498 58.1544 302.308L58.1201 281.936ZM61.8959 290.157H63.8352C66.4611 290.157 67.9371 288.921 67.9371 287.153C67.9371 285.386 66.4611 284.304 64.0412 284.304C63.3169 284.28 62.5921 284.331 61.8787 284.459L61.8959 290.157ZM61.8959 299.733C62.5629 299.802 63.2334 299.831 63.9039 299.819C66.341 299.819 68.5034 298.892 68.5034 296.387C68.5034 293.881 66.4096 292.954 63.7837 292.954H61.8959V299.733Z" fill="#F1592A"/>
<path d="M80.0538 281.661H83.8467V295.202C83.8467 300.952 81.0664 302.874 76.9817 302.874C75.8893 302.865 74.8056 302.68 73.7723 302.325L74.2357 299.27C74.9973 299.508 75.7892 299.635 76.587 299.648C78.7495 299.648 80.0195 298.652 80.0195 295.048L80.0538 281.661Z" fill="#F1592A"/>
<path d="M94.6419 292.937V295.563H86.7472V292.937H94.6419Z" fill="#F1592A"/>
<path d="M113.074 301.862C111.368 302.542 109.538 302.858 107.703 302.788C101.095 302.788 97.079 298.652 97.079 292.319C97.0009 290.844 97.236 289.368 97.7689 287.99C98.3019 286.612 99.1205 285.362 100.171 284.323C101.221 283.284 102.48 282.479 103.864 281.961C105.248 281.443 106.726 281.224 108.2 281.318C109.964 281.245 111.722 281.561 113.349 282.245L112.508 285.265C111.217 284.716 109.826 284.441 108.423 284.459C104.184 284.459 101.129 287.119 101.129 292.13C101.129 296.696 103.824 299.648 108.389 299.648C109.805 299.668 111.212 299.405 112.525 298.875L113.074 301.862Z" fill="#F1592A"/>
<path d="M124.985 272.891V311.301H115.666V307.868H120.609V276.324H115.666V272.891H124.985Z" fill="#F1592A"/>
</g>
<defs>
<filter id="filter0_di" x="19.2631" y="272.891" width="109.722" height="46.4783" filterUnits="userSpaceOnUse" color-interpolation-filters="sRGB">
<feFlood flood-opacity="0" result="BackgroundImageFix"/>
<feColorMatrix in="SourceAlpha" type="matrix" values="0 0 0 0 0 0 0 0 0 0 0 0 0 0 0 0 0 0 127 0"/>
<feOffset dy="4"/>
<feGaussianBlur stdDeviation="2"/>
<feColorMatrix type="matrix" values="0 0 0 0 0 0 0 0 0 0 0 0 0 0 0 0 0 0 0.25 0"/>
<feBlend mode="normal" in2="BackgroundImageFix" result="effect1_dropShadow"/>
<feBlend mode="normal" in="SourceGraphic" in2="effect1_dropShadow" result="shape"/>
<feColorMatrix in="SourceAlpha" type="matrix" values="0 0 0 0 0 0 0 0 0 0 0 0 0 0 0 0 0 0 127 0" result="hardAlpha"/>
<feOffset dy="4"/>
<feGaussianBlur stdDeviation="2"/>
<feComposite in2="hardAlpha" operator="arithmetic" k2="-1" k3="1"/>
<feColorMatrix type="matrix" values="0 0 0 0 0 0 0 0 0 0 0 0 0 0 0 0 0 0 0.25 0"/>
<feBlend mode="normal" in2="shape" result="effect2_innerShadow"/>
</filter>
<linearGradient id="paint0_linear" x1="1" y1="0" x2="1" y2="698" gradientUnits="userSpaceOnUse">
<stop stop-color="white"/>
<stop offset="0.731611" stop-color="white" stop-opacity="0"/>
</linearGradient>
<linearGradient id="paint1_linear" x1="1" y1="0" x2="1" y2="592" gradientUnits="userSpaceOnUse">
<stop stop-color="white"/>
<stop offset="0.731611" stop-color="white" stop-opacity="0"/>
</linearGradient>
<clipPath id="clip0">
<rect width="64" height="281" fill="white" transform="matrix(1 0 0 -1 43 281)"/>
</clipPath>
</defs>
</svg>
