<svg width="150" height="446" viewBox="0 0 150 446" fill="none" xmlns="http://www.w3.org/2000/svg">
<g clip-path="url(#clip0)">
<rect x="43" y="-74.5" width="2" height="698" fill="url(#paint0_linear)"/>
<rect x="105" y="-21.5" width="2" height="592" fill="url(#paint1_linear)"/>
</g>
<path d="M75 0L139.952 37.5V112.5L75 150L10.0481 112.5L10.0481 37.5L75 0Z" fill="white"/>
<g filter="url(#filter0_di)">
<path d="M102.953 64.1409V69.3706H108.183V64.1409H110.798V69.3706H116.028V71.9854H110.798V77.2148H116.028V79.8296H110.798V85.0593H108.183V79.8296H102.953V85.0593H100.338V79.8296H95.1091V77.2148H100.338V71.9854H95.1091V69.3706H100.338V64.1409H102.953ZM108.183 71.9851H102.953V77.2148H108.183V71.9854V71.9851Z" fill="#8135E1"/>
<path d="M74.4507 37.8764C88.0913 37.8764 100 45.2843 106.379 56.2957L106.317 56.1897L90.268 65.4304C87.1062 60.0769 81.3099 56.4637 74.66 56.3892L74.4504 56.388C64.3104 56.388 56.0897 64.6087 56.0897 74.7487C56.0864 77.9447 56.9213 81.0857 58.5113 83.8582C61.6761 89.3833 67.6258 93.1098 74.4507 93.1098C81.318 93.1098 87.3015 89.3359 90.45 83.7519L90.3736 83.8858L106.398 93.1692C100.089 104.087 88.3432 111.472 74.8614 111.619L74.4507 111.622C60.7671 111.622 48.8242 104.168 42.4611 93.0985C39.3549 87.6945 37.5776 81.4297 37.5776 74.7487C37.5776 54.3849 54.0857 37.876 74.4504 37.876L74.4507 37.8764Z" fill="#8135E1"/>
</g>
<defs>
<filter id="filter0_di" x="20.5922" y="19.0031" width="107.362" height="119.783" filterUnits="userSpaceOnUse" color-interpolation-filters="sRGB">
<feFlood flood-opacity="0" result="BackgroundImageFix"/>
<feColorMatrix in="SourceAlpha" type="matrix" values="0 0 0 0 0 0 0 0 0 0 0 0 0 0 0 0 0 0 127 0"/>
<feOffset dy="4"/>
<feGaussianBlur stdDeviation="2"/>
<feColorMatrix type="matrix" values="0 0 0 0 0 0 0 0 0 0 0 0 0 0 0 0 0 0 0.25 0"/>
<feBlend mode="normal" in2="BackgroundImageFix" result="effect1_dropShadow"/>
<feBlend mode="normal" in="SourceGraphic" in2="effect1_dropShadow" result="shape"/>
<feColorMatrix in="SourceAlpha" type="matrix" values="0 0 0 0 0 0 0 0 0 0 0 0 0 0 0 0 0 0 127 0" result="hardAlpha"/>
<feOffset dy="4"/>
<feGaussianBlur stdDeviation="2"/>
<feComposite in2="hardAlpha" operator="arithmetic" k2="-1" k3="1"/>
<feColorMatrix type="matrix" values="0 0 0 0 0 0 0 0 0 0 0 0 0 0 0 0 0 0 0.25 0"/>
<feBlend mode="normal" in2="shape" result="effect2_innerShadow"/>
</filter>
<linearGradient id="paint0_linear" x1="44" y1="-74.5" x2="44" y2="623.5" gradientUnits="userSpaceOnUse">
<stop stop-color="white"/>
<stop offset="0.731611" stop-color="white" stop-opacity="0"/>
</linearGradient>
<linearGradient id="paint1_linear" x1="106" y1="-21.5" x2="106" y2="570.5" gradientUnits="userSpaceOnUse">
<stop stop-color="white"/>
<stop offset="0.731611" stop-color="white" stop-opacity="0"/>
</linearGradient>
<clipPath id="clip0">
<rect width="64" height="343" fill="white" transform="translate(43 103)"/>
</clipPath>
</defs>
</svg>
