<svg width="150" height="367" viewBox="0 0 150 367" fill="none" xmlns="http://www.w3.org/2000/svg">
<g clip-path="url(#clip0)">
<rect x="43" y="-122.5" width="2" height="698" fill="url(#paint0_linear)"/>
<rect x="105" y="-69.5" width="2" height="592" fill="url(#paint1_linear)"/>
</g>
<g filter="url(#filter0_d)">
<path d="M75 0L139.952 37.5V112.5L75 150L10.0481 112.5L10.0481 37.5L75 0Z" fill="white"/>
<g filter="url(#filter1_di)">
<path d="M108.038 74.9765H107.155V77.7297H106.795V74.9765H105.908V74.6488H108.038V74.9765Z" fill="black"/>
<path d="M111.655 77.729H111.296V75.6602C111.296 75.4971 111.309 75.2973 111.326 75.0622C111.289 75.2029 111.258 75.3005 111.23 75.3628L110.184 77.729H110.009L108.96 75.3804C108.929 75.3152 108.898 75.2093 108.865 75.0622H108.853C108.865 75.1863 108.869 75.3868 108.869 75.665V77.729H108.525V74.6482H109L109.942 76.7985C110.014 76.9601 110.058 77.0848 110.081 77.1679H110.095C110.158 76.9985 110.209 76.8721 110.243 76.7889L111.205 74.6482H111.657V77.729H111.655Z" fill="black"/>
<path d="M60.1429 47.2121C63.7159 58.1689 65.0695 77.7148 75.5173 77.7148C76.3129 77.7148 77.1164 77.6368 77.9232 77.4829C68.4256 75.2622 67.3 55.9288 61.5045 45.9169C61.0501 46.331 60.5989 46.7627 60.1429 47.2121Z" fill="url(#paint2_linear)"/>
<path d="M61.5045 45.9168C67.3 55.9288 68.4256 75.2621 77.9232 77.4828C78.6693 77.3454 79.4171 77.1375 80.1664 76.8753C71.6414 72.6863 69.2849 53.9127 62.7035 44.8744C62.3048 45.2071 61.9047 45.5556 61.5045 45.9168Z" fill="url(#paint3_linear)"/>
<path d="M69.8548 39.9626C69.0608 39.9626 68.2556 40.0407 67.4473 40.1946C65.3332 40.5943 63.1857 41.5071 61.0205 42.8885C61.612 43.4737 62.1747 44.1436 62.704 44.8743C64.9059 43.042 67.0933 41.6879 69.2729 40.874C70.0907 40.5702 70.9055 40.3417 71.7234 40.1914C71.1335 40.0409 70.5116 39.9626 69.8548 39.9626Z" fill="#14559A"/>
<path d="M86.8212 73.014C87.6933 72.3186 88.567 71.5495 89.4423 70.7102C85.812 59.8044 84.5126 39.9788 73.9915 39.9788C73.2389 39.9788 72.48 40.0491 71.7227 40.1898C81.3063 42.5802 82.534 63.4898 86.8212 73.014Z" fill="url(#paint4_linear)"/>
<path d="M71.7231 40.1906C71.1332 40.0403 70.5114 39.962 69.8545 39.962L73.9919 39.9772C73.2393 39.9772 72.4804 40.0476 71.7231 40.1899" fill="#3092C4"/>
<path d="M86.6375 75.3309C86.2261 74.9376 85.8356 74.5059 85.4513 74.0454C83.6815 75.3021 81.9181 76.255 80.166 76.8754C80.7893 77.1808 81.443 77.4078 82.1366 77.5485C82.6739 77.6585 83.2304 77.7148 83.8155 77.7148C85.7813 77.7148 87.3358 77.4814 88.6591 76.845C87.9305 76.4501 87.2624 75.9384 86.6375 75.3309Z" fill="#1969BC"/>
<path d="M69.2722 40.8758C77.8563 45.3781 78.6024 65.7666 85.4517 74.0454C85.9109 73.7209 86.3653 73.3771 86.8197 73.014C82.5325 63.4898 81.3064 42.5785 71.7243 40.1898C70.9064 40.3433 70.0901 40.5705 69.2722 40.8758Z" fill="url(#paint5_linear)"/>
<path d="M62.7035 44.8745C69.285 53.9128 71.6415 72.6864 80.1665 76.8754C81.9187 76.255 83.682 75.3021 85.4518 74.0454C78.6024 65.7666 77.8563 45.3782 69.2722 40.8759C67.0928 41.688 64.9053 43.0422 62.7035 44.8745Z" fill="url(#paint6_linear)"/>
<path d="M55.9321 46.9482C54.9005 49.2874 53.8467 52.3619 52.5728 56.375C55.1062 52.7952 57.6316 49.7111 60.1427 47.2121C59.7968 46.1457 59.4253 45.1624 59.0251 44.2861C57.9984 45.0744 56.9636 45.9618 55.9321 46.9482Z" fill="url(#paint7_linear)"/>
<path d="M59.9399 43.6116C59.6369 43.829 59.3325 44.0513 59.0264 44.2863C59.4265 45.1625 59.7964 46.1458 60.1424 47.2122C60.5983 46.7645 61.051 46.3312 61.5038 45.9171C61.0176 45.0793 60.5011 44.3054 59.9399 43.6116Z" fill="#2B74B1"/>
<path d="M61.0205 42.8885C60.6602 43.1173 60.3015 43.3586 59.9396 43.6112C60.5008 44.3051 61.0173 45.0789 61.5052 45.9184C61.9055 45.5554 62.3056 45.2053 62.7042 44.8743C62.1749 44.1437 61.6121 43.4737 61.0205 42.8885Z" fill="#125A9E"/>
<path d="M119.571 39.1283C114.716 57.9035 104.576 72.9837 96.0749 76.7858H96.0588C95.9041 76.8561 95.7511 76.9201 95.5996 76.9824C95.5788 76.9951 95.5598 76.9966 95.5437 77.0042C95.4991 77.0223 95.4576 77.0363 95.413 77.0541C95.3921 77.0668 95.3732 77.0709 95.3541 77.0785C95.2824 77.1042 95.2122 77.1259 95.142 77.154C95.1117 77.1666 95.0831 77.1746 95.0542 77.1847C95.0223 77.1974 94.9856 77.2091 94.949 77.2193C94.9172 77.2319 94.8837 77.2411 94.847 77.2551C94.8167 77.2677 94.7848 77.2731 94.7562 77.2858C94.6939 77.3038 94.6367 77.319 94.5744 77.3408C94.5488 77.3408 94.525 77.3547 94.4979 77.3614C94.4596 77.374 94.4165 77.3832 94.3751 77.3946C94.3463 77.4073 94.3225 77.4114 94.2922 77.4177C94.249 77.4304 94.2012 77.4421 94.1582 77.4523C94.1008 77.465 94.0498 77.4767 93.9956 77.4881C94.3798 77.6304 94.78 77.7023 95.2121 77.7023C103.273 77.7023 111.401 63.2153 124.85 39.1239H119.569L119.571 39.1283Z" fill="url(#paint8_linear)"/>
<path d="M50.8221 40.7247C50.8272 40.7247 50.8335 40.712 50.8366 40.712C50.843 40.712 50.8528 40.712 50.8559 40.6993C50.8559 40.6993 50.8622 40.6993 50.866 40.6993C50.9106 40.6841 50.9521 40.6661 50.9967 40.6494C51.0081 40.6494 51.0141 40.6495 51.0223 40.6368C51.0337 40.6368 51.0447 40.6241 51.0559 40.6225C51.1037 40.6073 51.1515 40.5893 51.1962 40.5726C51.1962 40.5726 51.2012 40.5726 51.2038 40.5726C51.3106 40.5407 51.4094 40.501 51.5131 40.4639C51.5276 40.4639 51.5418 40.4512 51.5592 40.4512C51.6023 40.4373 51.647 40.4218 51.6916 40.4116C51.7124 40.399 51.733 40.3989 51.7521 40.3923C51.7983 40.3784 51.8431 40.3628 51.8861 40.3526C51.9054 40.3526 51.9228 40.34 51.9371 40.3387C52.0854 40.2978 52.232 40.2594 52.3803 40.2236C52.4012 40.2236 52.4186 40.2109 52.4409 40.2096C52.4839 40.197 52.5238 40.1903 52.57 40.184C52.5893 40.1713 52.6115 40.1713 52.6339 40.1647C52.6768 40.152 52.7183 40.1507 52.7646 40.1403C52.7759 40.1403 52.7819 40.1403 52.7949 40.1403C52.8842 40.1222 52.9751 40.107 53.0644 40.0904C53.0805 40.0904 53.101 40.0904 53.1186 40.0904C53.1615 40.0777 53.1998 40.0765 53.2429 40.0685C53.2666 40.0685 53.2907 40.0559 53.3131 40.0559C53.3529 40.0559 53.3928 40.0432 53.4326 40.0378C53.4534 40.0378 53.474 40.0378 53.498 40.0252C53.592 40.0125 53.6893 40.0074 53.7882 39.9995C53.5092 39.9726 53.2222 39.9547 52.9304 39.9547C43.8522 39.9547 31.3444 56.8464 25.71 78.7218C25.71 78.7218 26.1213 78.7218 26.7957 78.7218C28.5989 75.497 30.2188 72.4464 31.7 69.5828C35.646 54.0885 43.6831 43.5217 50.8227 40.7222" fill="url(#paint9_linear)"/>
<path d="M55.9321 46.9482C56.9637 45.9618 57.9984 45.0744 59.0252 44.2862C58.7909 43.7714 58.5485 43.2949 58.2886 42.8584C57.458 43.8689 56.6991 45.2023 55.9321 46.9482Z" fill="#0D82CA"/>
<path d="M56.6779 40.8527C57.271 41.3515 57.8019 42.0375 58.2882 42.8593C58.4413 42.6706 58.596 42.4963 58.757 42.3332C58.0826 41.7017 57.3539 41.1837 56.5631 40.7936C56.595 40.8113 56.6269 40.8256 56.66 40.8396C56.66 40.8396 56.6727 40.8523 56.678 40.8523" fill="#0D82CA"/>
<path d="M31.6996 69.5847C39.9775 53.5882 43.8996 43.4643 50.8223 40.7239C43.6844 43.5252 35.6456 54.0918 31.6996 69.5847Z" fill="url(#paint10_linear)"/>
<path d="M58.7563 42.3328C58.5954 42.4975 58.4423 42.6702 58.2876 42.8588C58.5475 43.2952 58.7898 43.7702 59.0259 44.2865C59.332 44.0516 59.6364 43.8293 59.9394 43.6119C59.5648 43.1482 59.1693 42.7181 58.7563 42.3328Z" fill="#127BCA"/>
<path d="M35.4574 78.6518C35.4064 78.6645 35.3554 78.6645 35.3075 78.6698C35.2916 78.6698 35.2884 78.6698 35.2788 78.6698C35.2357 78.6698 35.1911 78.6825 35.1513 78.6825C35.1513 78.6825 35.1353 78.6825 35.1305 78.6825C35.0269 78.6952 34.9248 78.6952 34.826 78.7031H34.7941C43.1724 78.468 47.0021 74.2613 48.9025 68.1602C50.347 63.5348 51.5332 59.6384 52.5728 56.3688C49.0636 61.322 45.5384 67.2265 41.9942 73.8409C40.285 77.029 37.6862 78.3608 35.4573 78.6455" fill="url(#paint11_linear)"/>
<path d="M35.4575 78.6486C37.6864 78.3639 40.2852 77.0336 41.9944 73.844C45.5386 67.2312 49.0653 61.3251 52.5713 56.3718C53.8468 52.3571 54.8991 49.2843 55.9323 46.9451C48.9442 53.6155 41.929 64.7067 35.4575 78.6454" fill="url(#paint12_linear)"/>
<path d="M31.6992 69.585C30.2181 72.4485 28.5982 75.4992 26.7949 78.724C27.5746 78.724 28.7034 78.724 29.9534 78.724C30.3711 75.5214 30.9642 72.4676 31.6992 69.5865" fill="#05A1E6"/>
<path d="M53.4977 40.0333C53.4721 40.0333 53.453 40.0459 53.4307 40.0459C53.3924 40.0586 53.3525 40.0586 53.3127 40.0627C53.289 40.0627 53.2665 40.0627 53.2426 40.0754C53.1995 40.0881 53.1597 40.0893 53.1182 40.0972C53.0989 40.0972 53.0799 40.0973 53.064 40.1099C52.973 40.1251 52.8838 40.1419 52.7945 40.1572C52.7787 40.1572 52.7737 40.1572 52.7642 40.1572C52.718 40.1699 52.6765 40.1765 52.6335 40.1829C52.6111 40.1955 52.5888 40.1956 52.568 40.2006C52.5251 40.2133 52.482 40.2187 52.4405 40.2263C52.4181 40.239 52.4007 40.2389 52.3799 40.2402C52.2317 40.276 52.0849 40.3144 51.9367 40.3554C51.9209 40.3554 51.9048 40.368 51.8857 40.3705C51.841 40.3832 51.7979 40.3962 51.7518 40.4102C51.7325 40.4229 51.7103 40.4229 51.6912 40.4279C51.6465 40.4406 51.6019 40.4536 51.5588 40.4676C51.5414 40.4676 51.5269 40.4803 51.511 40.4803C51.4089 40.5186 51.3085 40.557 51.2033 40.589C51.1586 40.6029 51.1108 40.621 51.063 40.6376C51.0437 40.6503 51.0263 40.6531 51.0041 40.6619C50.9594 40.6759 50.9148 40.6939 50.8733 40.7106C50.8575 40.7232 50.8414 40.7245 50.8303 40.7311C43.9076 43.4716 39.9855 53.5955 31.7076 69.592C30.9726 72.4731 30.3779 75.5269 29.9618 78.7293H30.405C31.6534 78.7293 32.0058 78.7166 33.4423 78.7166H33.5156H33.7293H33.8026H33.8234H33.8967H33.9382H33.9669H34.0243H34.2028H34.3814H34.5313H34.5711C34.6572 78.7166 34.7449 78.7166 34.8341 78.7166C34.933 78.7039 35.035 78.704 35.1387 78.696C35.1387 78.696 35.1546 78.696 35.1578 78.696C35.2009 78.696 35.2439 78.6834 35.2854 78.6834C35.3013 78.6834 35.3028 78.6834 35.3156 78.6834C35.3618 78.6834 35.4144 78.6707 35.4655 78.6653C41.937 64.7266 48.9521 53.6353 55.9401 46.965C56.7086 45.219 57.466 43.8856 58.2951 42.8768C57.8104 42.055 57.2794 41.3675 56.6864 40.8685C56.6864 40.8685 56.6702 40.8685 56.669 40.8559C56.6354 40.8419 56.6037 40.8252 56.5702 40.8086C56.5366 40.7905 56.5079 40.7766 56.4729 40.7587C56.4426 40.746 56.4075 40.7292 56.3773 40.7126C56.3358 40.7 56.3023 40.6819 56.2657 40.6653C56.2354 40.6526 56.2083 40.6396 56.1779 40.6269C56.1157 40.6025 56.0536 40.577 55.9946 40.5502C55.9674 40.5375 55.942 40.5309 55.9164 40.5207C55.8734 40.5052 55.8239 40.4849 55.7793 40.4657C55.7568 40.4531 55.7314 40.4505 55.7059 40.4413C55.6406 40.4195 55.5768 40.3966 55.5162 40.3761C55.5004 40.3761 55.5004 40.3761 55.5004 40.3761C55.427 40.3517 55.3553 40.3339 55.2803 40.3134C55.263 40.3007 55.2485 40.3007 55.231 40.2982C55.1656 40.2802 55.1082 40.2624 55.0461 40.2457C55.0303 40.2457 55.0157 40.2331 55.0031 40.2331C54.8532 40.1934 54.6986 40.1615 54.5423 40.132C54.5262 40.132 54.5104 40.1194 54.4945 40.1194C54.4275 40.1067 54.3621 40.095 54.2952 40.0874C54.2791 40.0747 54.2696 40.0747 54.2554 40.0747C54.1757 40.0621 54.0976 40.0529 54.0194 40.044C54.0036 40.044 53.9922 40.044 53.978 40.044C53.9142 40.0313 53.8553 40.0301 53.7962 40.0234C53.6957 40.0361 53.6001 40.0415 53.506 40.0503" fill="url(#paint13_linear)"/>
<path d="M100.608 49.5223C99.0149 54.6386 97.7251 58.8596 96.6027 62.3323C100.973 56.3014 105.278 48.7148 109.377 39.9597C104.595 41.4657 102.044 44.9129 100.608 49.5223Z" fill="url(#paint14_linear)"/>
<path d="M96.7414 76.466C96.5182 76.5799 96.295 76.6882 96.075 76.7858C104.576 72.9837 114.716 57.9034 119.571 39.1283H118.587C107.433 59.109 103.846 72.4849 96.7414 76.466Z" fill="url(#paint15_linear)"/>
<path d="M91.1902 74.7874C93.0397 72.5234 94.5463 68.6751 96.6031 62.3324C94.2306 65.6004 91.8424 68.4097 89.4523 70.7007C89.4523 70.7134 89.4523 70.7134 89.4397 70.7214C89.9611 72.2882 90.5334 73.6711 91.1856 74.7871" fill="#079AE1"/>
<path d="M91.1902 74.7874C90.5604 75.558 89.894 76.1449 89.1526 76.5798C88.99 76.6744 88.8258 76.7636 88.6583 76.8451C89.4412 77.2688 90.2957 77.5519 91.2523 77.6653C91.3925 77.6793 91.5312 77.6922 91.6764 77.7024H91.702C91.7671 77.7024 91.8359 77.7024 91.9061 77.7151H91.9342C92.0044 77.7151 92.0747 77.7151 92.1431 77.7151C92.2184 77.7151 92.293 77.7151 92.368 77.7151C92.3923 77.7151 92.4152 77.7151 92.4382 77.7151C92.4892 77.7151 92.544 77.7151 92.5976 77.7151C92.6232 77.7151 92.6499 77.7151 92.6754 77.7024C92.7251 77.7024 92.7774 77.7024 92.8284 77.6897C92.8411 77.6897 92.8411 77.6897 92.8464 77.6897C92.867 77.6897 92.8847 77.6897 92.9038 77.6897C92.9561 77.6897 93.0135 77.677 93.0697 77.6717H93.0823C93.099 77.6717 93.1167 77.659 93.1333 77.659C93.1919 77.6463 93.2532 77.6409 93.3103 77.6321C93.3296 77.6321 93.3435 77.6321 93.3626 77.6321C93.4276 77.6194 93.4949 77.6115 93.5619 77.5988H93.5745C93.5871 77.5988 93.5884 77.5988 93.5937 77.5988C93.7277 77.5732 93.8584 77.5477 93.9907 77.5144C92.8938 77.1115 91.9754 76.1618 91.1846 74.8092" fill="#1969BC"/>
<path d="M75.5175 77.7151C76.3131 77.7151 77.1167 77.6371 77.9234 77.4816C78.6696 77.3458 79.4173 77.1378 80.1666 76.8756C80.7901 77.1811 81.4437 77.4081 82.1357 77.5488C82.6729 77.6588 83.2309 77.7151 83.8161 77.7151H75.5175Z" fill="#1E5CB3"/>
<path d="M83.8163 77.7151C85.7805 77.7151 87.3366 77.4817 88.6584 76.8453C89.4412 77.269 90.2958 77.552 91.2523 77.6656C91.3927 77.6795 91.5314 77.6925 91.6765 77.7027H91.7021C91.7671 77.7027 91.836 77.7027 91.9061 77.7154H91.9355C92.0056 77.7154 92.0758 77.7154 92.1444 77.7154H83.8107L83.8163 77.7151Z" fill="#1E5CB3"/>
<path d="M92.1494 77.7151C92.2259 77.7151 92.301 77.7151 92.3758 77.7151C92.3976 77.7151 92.423 77.7151 92.446 77.7151C92.497 77.7151 92.5493 77.7151 92.6039 77.7151C92.6307 77.7151 92.6562 77.715 92.6817 77.7024C92.7314 77.7024 92.7837 77.7024 92.8364 77.6897C92.849 77.6897 92.849 77.6897 92.8531 77.6897C92.8737 77.6897 92.8927 77.6897 92.9118 77.6897C92.9641 77.6897 93.0215 77.6771 93.0761 77.672C93.0761 77.672 93.0887 77.672 93.09 77.672C93.1067 77.672 93.1232 77.6593 93.1397 77.6593C93.1984 77.6466 93.2597 77.6416 93.3167 77.6324C93.3359 77.6324 93.3511 77.6324 93.3715 77.6197C93.4365 77.607 93.5039 77.6004 93.5709 77.5877H93.5835C93.5961 77.5877 93.5974 77.5877 93.6028 77.5877C93.7367 77.5621 93.8674 77.5366 93.9997 77.5033C94.3839 77.6455 94.7841 77.7176 95.2161 77.7176L92.1518 77.7302L92.1494 77.7151Z" fill="#1D60B5"/>
<path d="M89.4448 70.7215V70.7089C88.5696 71.5482 87.6958 72.3173 86.8237 73.0128C86.3677 73.3758 85.9134 73.7194 85.4542 74.0441C85.8384 74.5045 86.2291 74.9362 86.6404 75.3295C87.2654 75.937 87.9333 76.4487 88.662 76.8436C88.8278 76.7617 88.9936 76.6724 89.1546 76.5782C89.8976 76.1433 90.564 75.5566 91.1939 74.7859C90.5417 73.6699 89.9694 72.2869 89.448 70.72" fill="#175FAB"/>
<path d="M115.472 39.1283H111.336C111.197 39.1283 111.06 39.1283 110.925 39.1283C110.792 39.1283 110.665 39.1283 110.536 39.1283H110.521C110.253 39.141 109.993 39.1502 109.736 39.1667C109.615 39.4274 109.491 39.688 109.371 39.9502C105.272 48.7054 100.967 56.292 96.5971 62.3228C94.5419 68.6654 93.0337 72.5138 91.1842 74.7778C91.975 76.1304 92.895 77.0816 93.9887 77.4846C94.0206 77.4719 94.0461 77.4719 94.0748 77.4653C94.0748 77.4653 94.0906 77.4653 94.0925 77.4653C94.1118 77.4653 94.1323 77.4526 94.1531 77.4526C94.1977 77.4399 94.2456 77.432 94.2902 77.4181C94.3189 77.4054 94.3427 77.4041 94.3716 77.3949C94.413 77.3823 94.456 77.3731 94.4943 77.363C94.5198 77.3503 94.5453 77.3461 94.5708 77.3411C94.6345 77.3205 94.692 77.3053 94.7526 77.2861C94.7813 77.2734 94.8116 77.263 94.8435 77.2554C94.8786 77.2427 94.9136 77.2335 94.9455 77.2183C94.9823 77.2056 95.0189 77.1989 95.0508 77.185C95.0795 77.1723 95.1097 77.1644 95.1369 77.153C95.2085 77.1274 95.2788 77.1057 95.3505 77.0776C95.3698 77.0776 95.3888 77.0598 95.4096 77.0557C95.4525 77.0377 95.4972 77.0237 95.5403 77.0045C95.5561 76.9919 95.5753 76.9906 95.596 76.9839C95.7459 76.9212 95.9005 76.8573 96.0552 76.7873H96.0713C96.2913 76.6901 96.5146 76.581 96.7362 76.4676C103.842 72.4865 107.43 59.1105 118.584 39.1298H115.468L115.472 39.1283Z" fill="url(#paint16_linear)"/>
<path d="M53.7881 40.0062C53.8058 40.0062 53.8216 40.0062 53.8391 40.0189C53.8821 40.0189 53.9252 40.0189 53.9682 40.0328C53.9843 40.0328 53.9986 40.0328 54.0113 40.0328C54.0894 40.0455 54.1676 40.0522 54.2473 40.0636C54.2618 40.0636 54.2745 40.0636 54.2871 40.0762C54.3524 40.0889 54.4194 40.0994 54.4864 40.1095C54.5009 40.1095 54.52 40.1222 54.5359 40.1222C54.689 40.1529 54.8452 40.1848 54.995 40.2245C55.0093 40.2245 55.0238 40.2372 55.0365 40.2372C55.1003 40.2524 55.1577 40.2717 55.2214 40.2896C55.2407 40.2896 55.2548 40.3022 55.2725 40.3051C55.3474 40.3244 55.4176 40.3435 55.4909 40.3678C55.4941 40.3678 55.4985 40.3678 55.507 40.3804C55.5691 40.3994 55.6329 40.4239 55.6983 40.4457C55.7239 40.4583 55.7477 40.4637 55.7717 40.4701C55.8163 40.4894 55.8658 40.5084 55.9088 40.5263C55.9344 40.5263 55.9598 40.5441 55.9868 40.5533C56.0458 40.5802 56.108 40.6044 56.1686 40.63C56.2005 40.6427 56.2275 40.6569 56.2579 40.6684C56.2929 40.6864 56.3296 40.7029 56.3679 40.7157C56.3997 40.7309 56.4348 40.7477 56.465 40.7617C56.4985 40.7798 56.5303 40.7937 56.5623 40.8116C57.3531 41.2017 58.0817 41.7214 58.7562 42.3514C59.0049 42.0891 59.2647 41.8541 59.5342 41.643C58.0594 40.5942 56.3886 39.9962 54.461 39.9962C54.2378 39.9962 54.0145 40.0089 53.7882 40.0257" fill="#7DCBEC"/>
<path d="M58.7565 42.3328C59.1694 42.718 59.5648 43.1482 59.9395 43.6118C60.3014 43.3592 60.6602 43.1162 61.0205 42.8891C60.5485 42.4159 60.0511 41.9906 59.5329 41.6244C59.2635 41.8339 59.0052 42.0705 58.7565 42.3328Z" fill="#5EC5ED"/>
<path d="M53.7878 40.006C54.0142 39.9868 54.2374 39.9788 54.4606 39.9788C56.3881 39.9788 58.059 40.5768 59.5338 41.624C61.0899 40.3929 62.9713 39.9628 65.5845 39.9628H52.9301C53.2218 39.9628 53.5072 39.9804 53.7878 40.006Z" fill="url(#paint17_linear)"/>
<path d="M65.5845 39.9628C62.9713 39.9628 61.0899 40.3929 59.5338 41.624C60.0504 41.9901 60.5478 42.4154 61.0198 42.8887C63.1865 41.5073 65.3325 40.5927 67.4482 40.193C68.2549 40.0411 69.0601 39.9628 69.8541 39.9628H65.5845Z" fill="url(#paint18_linear)"/>
<path d="M96.6026 62.3354C97.7266 58.8595 99.0133 54.6403 100.609 49.5223C102.047 44.9113 104.594 41.4642 109.375 39.9597C109.501 39.7022 109.621 39.4368 109.743 39.1761C101.948 39.6447 98.3054 43.6209 96.4718 49.5096C93.2656 59.7901 91.3236 66.4541 89.4535 70.7006C91.8418 68.4111 94.2302 65.6003 96.6026 62.3354Z" fill="url(#paint19_linear)"/>
<path d="M37.398 99.9547H35.976L41.484 87.2107H42.744L48.216 99.9547H46.776L45.372 96.6067H38.784L37.398 99.9547ZM39.27 95.4187H44.886L42.078 88.6507L39.27 95.4187ZM57.2655 89.2627C56.9895 88.8787 56.6355 88.5727 56.2035 88.3447C55.7715 88.1047 55.2495 87.9847 54.6375 87.9847C54.3255 87.9847 54.0075 88.0327 53.6835 88.1287C53.3595 88.2247 53.0655 88.3747 52.8015 88.5787C52.5375 88.7707 52.3215 89.0167 52.1535 89.3167C51.9975 89.6167 51.9195 89.9707 51.9195 90.3787C51.9195 90.7867 51.9975 91.1227 52.1535 91.3867C52.3095 91.6507 52.5135 91.8787 52.7655 92.0707C53.0295 92.2507 53.3235 92.4007 53.6475 92.5207C53.9835 92.6407 54.3315 92.7607 54.6915 92.8807C55.1355 93.0247 55.5795 93.1807 56.0235 93.3487C56.4795 93.5167 56.8875 93.7387 57.2475 94.0147C57.6075 94.2787 57.9015 94.6207 58.1295 95.0407C58.3575 95.4487 58.4715 95.9707 58.4715 96.6067C58.4715 97.2427 58.3455 97.7947 58.0935 98.2627C57.8535 98.7187 57.5355 99.0967 57.1395 99.3967C56.7555 99.6967 56.3115 99.9187 55.8075 100.063C55.3155 100.207 54.8175 100.279 54.3135 100.279C53.9295 100.279 53.5455 100.237 53.1615 100.153C52.7775 100.081 52.4115 99.9667 52.0635 99.8107C51.7155 99.6547 51.3915 99.4567 51.0915 99.2167C50.7915 98.9767 50.5275 98.7007 50.2995 98.3887L51.4155 97.5607C51.6915 98.0167 52.0755 98.4007 52.5675 98.7127C53.0715 99.0127 53.6595 99.1627 54.3315 99.1627C54.6555 99.1627 54.9855 99.1147 55.3215 99.0187C55.6575 98.9107 55.9575 98.7547 56.2215 98.5507C56.4975 98.3347 56.7195 98.0767 56.8875 97.7767C57.0675 97.4647 57.1575 97.1047 57.1575 96.6967C57.1575 96.2527 57.0675 95.8867 56.8875 95.5987C56.7195 95.2987 56.4915 95.0527 56.2035 94.8607C55.9155 94.6567 55.5855 94.4887 55.2135 94.3567C54.8415 94.2247 54.4515 94.0927 54.0435 93.9607C53.6235 93.8287 53.2095 93.6787 52.8015 93.5107C52.3935 93.3427 52.0275 93.1267 51.7035 92.8627C51.3795 92.5867 51.1155 92.2507 50.9115 91.8547C50.7195 91.4587 50.6235 90.9727 50.6235 90.3967C50.6235 89.7847 50.7435 89.2567 50.9835 88.8127C51.2355 88.3687 51.5595 88.0027 51.9555 87.7147C52.3515 87.4267 52.7895 87.2167 53.2695 87.0847C53.7495 86.9527 54.2235 86.8867 54.6915 86.8867C55.5555 86.8867 56.2935 87.0427 56.9055 87.3547C57.5175 87.6547 57.9795 88.0147 58.2915 88.4347L57.2655 89.2627ZM62.2517 87.2107H65.8517C66.4997 87.2107 67.0877 87.2827 67.6157 87.4267C68.1437 87.5587 68.5937 87.7687 68.9657 88.0567C69.3497 88.3327 69.6437 88.6867 69.8477 89.1187C70.0517 89.5387 70.1537 90.0367 70.1537 90.6127C70.1537 91.1887 70.0457 91.6927 69.8297 92.1247C69.6257 92.5447 69.3317 92.8987 68.9477 93.1867C68.5757 93.4627 68.1197 93.6727 67.5797 93.8167C67.0517 93.9607 66.4637 94.0327 65.8157 94.0327H63.5477V99.9547H62.2517V87.2107ZM63.5477 92.9347H65.7437C66.7637 92.9347 67.5377 92.7367 68.0657 92.3407C68.5937 91.9447 68.8577 91.3687 68.8577 90.6127C68.8577 89.8207 68.5817 89.2447 68.0297 88.8847C67.4897 88.5127 66.7277 88.3267 65.7437 88.3267H63.5477V92.9347ZM72.7291 99.0907C72.7291 99.3427 72.6391 99.5707 72.4591 99.7747C72.2791 99.9667 72.0451 100.063 71.7571 100.063C71.4691 100.063 71.2351 99.9667 71.0551 99.7747C70.8751 99.5707 70.7851 99.3427 70.7851 99.0907C70.7851 98.8387 70.8751 98.6167 71.0551 98.4247C71.2351 98.2207 71.4691 98.1187 71.7571 98.1187C72.0451 98.1187 72.2791 98.2207 72.4591 98.4247C72.6391 98.6167 72.7291 98.8387 72.7291 99.0907ZM85.8209 98.0647H85.8569V87.2107H87.1529V99.9547H85.5329L78.1169 88.9927H78.0809V99.9547H76.7849V87.2107H78.4049L85.8209 98.0647ZM92.827 98.8027H99.649V99.9547H91.531V87.2107H99.433V88.3627H92.827V92.7547H99.001V93.8887H92.827V98.8027ZM107.269 99.9547H105.973V88.3627H101.707V87.2107H111.535V88.3627H107.269V99.9547ZM60.7416 115.003H60.7776L64.5396 105.211H67.3116V117.955H65.5296V107.299H65.4936L61.2636 117.955H60.1296L55.9176 107.299H55.8816V117.955H54.1536V105.211H56.9256L60.7416 115.003ZM75.6433 115.651H75.6973L79.5313 105.211H81.4573L76.4533 117.955H74.7973L69.8293 105.211H71.8093L75.6433 115.651ZM94.6772 115.975C94.1732 116.659 93.5192 117.217 92.7152 117.649C91.9112 118.069 90.9452 118.279 89.8172 118.279C88.8452 118.279 87.9452 118.117 87.1172 117.793C86.3012 117.457 85.5932 116.995 84.9932 116.407C84.4052 115.807 83.9432 115.099 83.6072 114.283C83.2712 113.455 83.1032 112.549 83.1032 111.565C83.1032 110.569 83.2712 109.663 83.6072 108.847C83.9552 108.019 84.4292 107.317 85.0292 106.741C85.6412 106.153 86.3612 105.697 87.1892 105.373C88.0172 105.049 88.9172 104.887 89.8892 104.887C90.3212 104.887 90.7592 104.929 91.2032 105.013C91.6472 105.097 92.0732 105.223 92.4812 105.391C92.8892 105.559 93.2612 105.769 93.5972 106.021C93.9332 106.261 94.2212 106.543 94.4612 106.867L93.0572 107.947C92.7452 107.515 92.3012 107.161 91.7252 106.885C91.1612 106.597 90.5492 106.453 89.8892 106.453C89.1452 106.453 88.4732 106.591 87.8732 106.867C87.2852 107.131 86.7812 107.497 86.3612 107.965C85.9412 108.433 85.6172 108.979 85.3892 109.603C85.1612 110.215 85.0472 110.869 85.0472 111.565C85.0472 112.285 85.1552 112.957 85.3712 113.581C85.5992 114.205 85.9172 114.751 86.3252 115.219C86.7452 115.675 87.2492 116.035 87.8372 116.299C88.4372 116.563 89.1032 116.695 89.8352 116.695C90.5552 116.695 91.2092 116.551 91.7972 116.263C92.3852 115.975 92.8712 115.555 93.2552 115.003L94.6772 115.975Z" fill="#4D4949"/>
</g>
</g>
<defs>
<filter id="filter0_d" x="-4" y="0" width="158" height="158" filterUnits="userSpaceOnUse" color-interpolation-filters="sRGB">
<feFlood flood-opacity="0" result="BackgroundImageFix"/>
<feColorMatrix in="SourceAlpha" type="matrix" values="0 0 0 0 0 0 0 0 0 0 0 0 0 0 0 0 0 0 127 0"/>
<feOffset dy="4"/>
<feGaussianBlur stdDeviation="2"/>
<feColorMatrix type="matrix" values="0 0 0 0 0 0 0 0 0 0 0 0 0 0 0 0 0 0 0.25 0"/>
<feBlend mode="normal" in2="BackgroundImageFix" result="effect1_dropShadow"/>
<feBlend mode="normal" in="SourceGraphic" in2="effect1_dropShadow" result="shape"/>
</filter>
<filter id="filter1_di" x="21.71" y="39.1239" width="107.14" height="87.1548" filterUnits="userSpaceOnUse" color-interpolation-filters="sRGB">
<feFlood flood-opacity="0" result="BackgroundImageFix"/>
<feColorMatrix in="SourceAlpha" type="matrix" values="0 0 0 0 0 0 0 0 0 0 0 0 0 0 0 0 0 0 127 0"/>
<feOffset dy="4"/>
<feGaussianBlur stdDeviation="2"/>
<feColorMatrix type="matrix" values="0 0 0 0 0 0 0 0 0 0 0 0 0 0 0 0 0 0 0.25 0"/>
<feBlend mode="normal" in2="BackgroundImageFix" result="effect1_dropShadow"/>
<feBlend mode="normal" in="SourceGraphic" in2="effect1_dropShadow" result="shape"/>
<feColorMatrix in="SourceAlpha" type="matrix" values="0 0 0 0 0 0 0 0 0 0 0 0 0 0 0 0 0 0 127 0" result="hardAlpha"/>
<feOffset dy="4"/>
<feGaussianBlur stdDeviation="2"/>
<feComposite in2="hardAlpha" operator="arithmetic" k2="-1" k3="1"/>
<feColorMatrix type="matrix" values="0 0 0 0 0 0 0 0 0 0 0 0 0 0 0 0 0 0 0.25 0"/>
<feBlend mode="normal" in2="shape" result="effect2_innerShadow"/>
</filter>
<linearGradient id="paint0_linear" x1="44" y1="-122.5" x2="44" y2="575.5" gradientUnits="userSpaceOnUse">
<stop stop-color="white"/>
<stop offset="0.731611" stop-color="white" stop-opacity="0"/>
</linearGradient>
<linearGradient id="paint1_linear" x1="106" y1="-69.5" x2="106" y2="522.5" gradientUnits="userSpaceOnUse">
<stop stop-color="white"/>
<stop offset="0.731611" stop-color="white" stop-opacity="0"/>
</linearGradient>
<linearGradient id="paint2_linear" x1="69.0326" y1="39.7112" x2="69.0326" y2="87.1349" gradientUnits="userSpaceOnUse">
<stop stop-color="#0994DC"/>
<stop offset="0.350006" stop-color="#66CEF5"/>
<stop offset="0.846161" stop-color="#127BCA"/>
<stop offset="1" stop-color="#127BCA"/>
</linearGradient>
<linearGradient id="paint3_linear" x1="70.8356" y1="38.5105" x2="70.8356" y2="87.1428" gradientUnits="userSpaceOnUse">
<stop stop-color="#0E76BC"/>
<stop offset="0.360001" stop-color="#36AEE8"/>
<stop offset="0.846161" stop-color="#00ADEF"/>
<stop offset="1" stop-color="#00ADEF"/>
</linearGradient>
<linearGradient id="paint4_linear" x1="80.5824" y1="76.6221" x2="80.5824" y2="37.926" gradientUnits="userSpaceOnUse">
<stop stop-color="#1C63B7"/>
<stop offset="0.5" stop-color="#33BDF2"/>
<stop offset="1" stop-color="#33BDF2" stop-opacity="0.419608"/>
</linearGradient>
<linearGradient id="paint5_linear" x1="78.0461" y1="33.5829" x2="78.0461" y2="84.0759" gradientUnits="userSpaceOnUse">
<stop stop-color="#166AB8"/>
<stop offset="0.399994" stop-color="#36AEE8"/>
<stop offset="0.846161" stop-color="#0798DD"/>
<stop offset="1" stop-color="#0798DD"/>
</linearGradient>
<linearGradient id="paint6_linear" x1="74.0773" y1="33.8483" x2="74.0773" y2="87.5409" gradientUnits="userSpaceOnUse">
<stop stop-color="#124379"/>
<stop offset="0.389999" stop-color="#1487CB"/>
<stop offset="0.780228" stop-color="#165197"/>
<stop offset="1" stop-color="#165197"/>
</linearGradient>
<linearGradient id="paint7_linear" x1="52.5728" y1="50.3306" x2="60.1428" y2="50.3306" gradientUnits="userSpaceOnUse">
<stop stop-color="#33BDF2" stop-opacity="0.698039"/>
<stop offset="1" stop-color="#1DACD8"/>
</linearGradient>
<linearGradient id="paint8_linear" x1="109.426" y1="75.6524" x2="109.426" y2="37.9571" gradientUnits="userSpaceOnUse">
<stop stop-color="#136AB4"/>
<stop offset="0.6" stop-color="#59CAF5" stop-opacity="0.54902"/>
<stop offset="1" stop-color="#59CAF5" stop-opacity="0.235294"/>
</linearGradient>
<linearGradient id="paint9_linear" x1="25.7097" y1="59.3381" x2="53.7879" y2="59.3381" gradientUnits="userSpaceOnUse">
<stop stop-color="#05A1E6" stop-opacity="0.247059"/>
<stop offset="1" stop-color="#05A1E6"/>
</linearGradient>
<linearGradient id="paint10_linear" x1="41.2606" y1="76.6018" x2="41.2606" y2="38.0048" gradientUnits="userSpaceOnUse">
<stop stop-color="#318ED5"/>
<stop offset="1" stop-color="#38A7E4"/>
</linearGradient>
<linearGradient id="paint11_linear" x1="43.6832" y1="76.7377" x2="43.6832" y2="39.2193" gradientUnits="userSpaceOnUse">
<stop stop-color="#05A1E6"/>
<stop offset="1" stop-color="#05A1E6" stop-opacity="0.54902"/>
</linearGradient>
<linearGradient id="paint12_linear" x1="45.6949" y1="78.6519" x2="45.6949" y2="46.9483" gradientUnits="userSpaceOnUse">
<stop stop-color="#1959A6"/>
<stop offset="0.5" stop-color="#05A1E6"/>
<stop offset="0.917587" stop-color="#7EC5EA"/>
<stop offset="1" stop-color="#7EC5EA"/>
</linearGradient>
<linearGradient id="paint13_linear" x1="46.9063" y1="76.6267" x2="40.8289" y2="42.2569" gradientUnits="userSpaceOnUse">
<stop stop-color="#165096"/>
<stop offset="1" stop-color="#0D82CA"/>
</linearGradient>
<linearGradient id="paint14_linear" x1="102.989" y1="57.1862" x2="102.989" y2="39.2217" gradientUnits="userSpaceOnUse">
<stop stop-color="#05A1E6"/>
<stop offset="0.873627" stop-color="#0495D6"/>
<stop offset="1" stop-color="#0495D6"/>
</linearGradient>
<linearGradient id="paint15_linear" x1="111.409" y1="37.5612" x2="104.086" y2="78.9793" gradientUnits="userSpaceOnUse">
<stop stop-color="#38A7E4" stop-opacity="0.329412"/>
<stop offset="0.961533" stop-color="#0E88D3"/>
<stop offset="1" stop-color="#0E88D3"/>
</linearGradient>
<linearGradient id="paint16_linear" x1="104.889" y1="39.0148" x2="104.889" y2="78.2064" gradientUnits="userSpaceOnUse">
<stop stop-color="#168CD4"/>
<stop offset="0.5" stop-color="#1C87CC"/>
<stop offset="1" stop-color="#154B8D"/>
</linearGradient>
<linearGradient id="paint17_linear" x1="55.04" y1="38.2092" x2="64.0496" y2="41.9356" gradientUnits="userSpaceOnUse">
<stop stop-color="#97D6EE"/>
<stop offset="0.703293" stop-color="#55C1EA"/>
<stop offset="1" stop-color="#55C1EA"/>
</linearGradient>
<linearGradient id="paint18_linear" x1="60.2449" y1="42.7043" x2="67.3616" y2="39.4871" gradientUnits="userSpaceOnUse">
<stop stop-color="#7ACCEC"/>
<stop offset="1" stop-color="#3FB7ED"/>
</linearGradient>
<linearGradient id="paint19_linear" x1="99.5977" y1="41.182" x2="99.5977" y2="79.5153" gradientUnits="userSpaceOnUse">
<stop stop-color="#1DA7E7"/>
<stop offset="1" stop-color="#37ABE7" stop-opacity="0"/>
</linearGradient>
<clipPath id="clip0">
<rect width="64" height="281" fill="white" transform="translate(43 86)"/>
</clipPath>
</defs>
</svg>
