<svg width="150" height="367" viewBox="0 0 150 367" fill="none" xmlns="http://www.w3.org/2000/svg">
<g clip-path="url(#clip0)">
<rect x="43" y="-122.5" width="2" height="698" fill="url(#paint0_linear)"/>
<rect x="105" y="-69.5" width="2" height="592" fill="url(#paint1_linear)"/>
</g>
<path d="M75 0L139.952 37.5V112.5L75 150L10.0481 112.5L10.0481 37.5L75 0Z" fill="white"/>
<g filter="url(#filter0_di)">
<path d="M22.0981 106.329C21.6124 106.067 21.2386 105.505 21.2386 104.757C21.2386 103.748 22.0234 102.93 23.0735 102.93C23.4455 102.93 23.7836 103.039 24.0435 103.189C25.9535 104.462 27.9362 105.098 29.729 105.098C31.6736 105.098 32.7954 104.274 32.7954 102.963V102.889C32.7954 101.356 30.7023 100.833 28.3816 100.123C25.466 99.2992 22.212 98.1037 22.212 94.3255V94.2497C22.212 90.5089 25.3161 88.2283 29.2435 88.2283C31.3386 88.2283 33.5442 88.8276 35.4518 89.8359C36.0894 90.1736 36.5359 90.7723 36.5359 91.5556C36.5359 92.604 35.7144 93.3912 34.6673 93.3912C34.2912 93.3912 34.0671 93.3161 33.7711 93.1656C32.1601 92.3418 30.5151 91.8173 29.1317 91.8173C27.3726 91.8173 26.3625 92.6421 26.3625 93.7649V93.8377C26.3625 95.2968 28.4943 95.8937 30.814 96.6432C33.6939 97.5415 36.9479 98.8497 36.9479 102.403V102.478C36.9479 106.63 33.7297 108.684 29.6165 108.684C27.1123 108.684 24.3818 107.902 22.0981 106.329Z" fill="#5FB832"/>
<path d="M54.4804 98.4761V98.4004C54.4804 94.5872 51.8991 92.081 48.8337 92.081C45.7669 92.081 43.0741 94.6242 43.0741 98.4004V98.4761C43.0741 102.254 45.7669 104.799 48.8337 104.799C51.9378 104.799 54.4804 102.366 54.4804 98.4761ZM38.6597 90.5083C38.6597 89.239 39.6309 88.2277 40.9052 88.2277C42.1759 88.2277 43.1859 89.239 43.1859 90.5083V91.8568C44.6447 89.8006 46.7012 88.1543 49.9185 88.1543C54.5555 88.1543 59.0816 91.818 59.0816 98.4004V98.4761C59.0816 105.022 54.5932 108.724 49.9185 108.724C46.6274 108.724 44.57 107.077 43.1859 105.248V112.238C43.1859 113.514 42.1759 114.487 40.9052 114.487C39.6717 114.487 38.6597 113.514 38.6597 112.238V90.5083Z" fill="#5FB832"/>
<path d="M60.7959 90.5111C60.7959 89.2419 61.7655 88.2305 63.0377 88.2305C64.3124 88.2305 65.3208 89.2419 65.3208 90.5111V91.5993C65.5467 89.9044 68.3116 88.2305 70.2948 88.2305C71.7152 88.2305 72.5392 89.1648 72.5392 90.4731C72.5392 91.669 71.7531 92.4558 70.743 92.6423C67.5264 93.2036 65.3208 96.0182 65.3208 99.9121V106.437C65.3208 107.673 64.3124 108.682 63.0377 108.682C61.8043 108.682 60.7959 107.709 60.7959 106.437V90.5111Z" fill="#5FB832"/>
<path d="M74.2509 90.5203C74.2509 89.249 75.2265 88.2375 76.4961 88.2375C77.7674 88.2375 78.7775 89.249 78.7775 90.5203V106.441C78.7775 107.711 77.7674 108.682 76.4961 108.682C75.261 108.682 74.2509 107.711 74.2509 106.441V90.5203Z" fill="#5FB832"/>
<path d="M81.0591 90.5289C81.0591 89.2576 82.0322 88.2486 83.3017 88.2486C84.5747 88.2486 85.584 89.2576 85.584 90.5289V91.4575C86.8579 89.6242 88.6877 88.2371 91.7543 88.2371C96.2051 88.2371 98.7874 91.2305 98.7874 95.7929V106.438C98.7874 107.709 97.8134 108.682 96.5421 108.682C95.2708 108.682 94.2616 107.709 94.2616 106.438V97.1773C94.2616 94.1119 92.7283 92.3526 90.0348 92.3526C87.4173 92.3526 85.584 94.1852 85.584 97.2544V106.438C85.584 107.709 84.5747 108.682 83.3017 108.682C82.0684 108.682 81.0591 107.709 81.0591 106.438V90.5289Z" fill="#5FB832"/>
<path d="M110.75 104.758C107.642 104.758 105.102 102.326 105.102 98.4358V98.3624C105.102 94.5482 107.68 92.042 110.75 92.042C113.817 92.042 116.51 94.5859 116.51 98.3624V98.4358C116.51 102.214 113.817 104.758 110.75 104.758ZM118.675 88.1887C117.405 88.1887 116.395 89.2007 116.395 90.4704V91.8164C114.935 89.7603 112.88 88.1149 109.665 88.1149C105.025 88.1149 100.501 91.7787 100.501 98.3624V98.4358C100.501 104.982 104.988 108.683 109.665 108.683C112.937 108.683 114.989 107.055 116.374 105.235C116.148 108.791 113.97 110.669 110.151 110.669C107.872 110.669 105.888 110.106 104.091 109.094C103.866 108.985 103.609 108.911 103.271 108.911C102.224 108.911 101.361 109.772 101.361 110.779C101.361 111.64 101.848 112.275 102.636 112.575C105.026 113.734 107.492 114.333 110.262 114.333C113.817 114.333 116.585 113.473 118.381 111.677C120.023 110.03 120.921 107.565 120.921 104.234V90.4704C120.921 89.2007 119.948 88.1887 118.675 88.1887Z" fill="#5FB832"/>
<path d="M78.7957 82.7876C78.7957 84.0461 77.7734 85.0693 76.5134 85.0693C75.2524 85.0693 74.2328 84.0461 74.2328 82.7876C74.2328 81.5258 75.2524 80.507 76.5134 80.507C77.7734 80.507 78.7957 81.5258 78.7957 82.7876Z" fill="#5FB832"/>
<path d="M91.904 58.7096C86.2632 66.2348 74.2138 63.6946 66.4885 64.06C66.4885 64.06 65.1209 64.1362 63.7435 64.3632C63.7435 64.3632 64.2643 64.1407 64.9286 63.9114C70.3544 62.0327 72.9185 61.6552 76.2154 59.9595C82.4099 56.7823 88.5749 49.8615 89.8293 42.6722C87.4715 49.5867 80.3004 55.538 73.7709 57.9546C69.3017 59.6059 61.2195 61.2129 61.2183 61.2136C61.2221 61.2193 60.8962 61.0442 60.8916 61.0404C55.3951 58.3628 55.2365 46.4429 65.2193 42.6006C69.5961 40.9147 73.7827 41.8407 78.5142 40.713C83.5606 39.5116 89.4054 35.7241 91.781 30.7724C94.4443 38.682 97.6436 51.0566 91.904 58.7096ZM92.0021 28.3214C91.3305 29.9188 90.511 31.3583 89.5662 32.6459C85.4078 28.3725 79.6036 25.71 73.188 25.71C60.568 25.71 50.3021 35.9903 50.3021 48.6242C50.3021 55.2473 53.1255 61.2205 57.6269 65.4074L58.1281 65.852C57.2912 65.1686 57.1625 63.938 57.8408 63.0992C58.5232 62.2601 59.7535 62.1301 60.5908 62.8097C61.4303 63.4907 61.5582 64.7244 60.8785 65.5647C60.2012 66.4053 58.9688 66.5323 58.1304 65.8539L58.4714 66.1563C62.4531 69.5132 67.5858 71.5409 73.188 71.5409C85.2507 71.5409 95.1559 62.1415 96.0038 50.2778C96.6317 44.469 94.9182 37.0932 92.0021 28.3214Z" fill="#5FB832"/>
<path d="M126.22 89.6141H125.509V90.5555H126.22C126.451 90.5555 126.702 90.3697 126.702 90.0959C126.702 89.7999 126.451 89.6141 126.22 89.6141ZM126.659 91.9446L125.969 90.8942H125.509V91.9446H125.138V89.2856H126.22C126.67 89.2856 127.086 89.6037 127.086 90.0959C127.086 90.6864 126.559 90.8837 126.407 90.8837L127.119 91.9446H126.659ZM126.024 88.6401C124.929 88.6401 124.054 89.5154 124.054 90.6104C124.054 91.6931 124.929 92.5799 126.024 92.5799C127.107 92.5799 127.993 91.6931 127.993 90.6104C127.993 89.5154 127.107 88.6401 126.024 88.6401ZM126.024 92.9304C124.743 92.9304 123.704 91.8904 123.704 90.6104C123.704 89.3181 124.743 88.2896 126.024 88.2896C127.315 88.2896 128.344 89.3181 128.344 90.6104C128.344 91.8904 127.315 92.9304 126.024 92.9304Z" fill="#5FB832"/>
</g>
<defs>
<filter id="filter0_di" x="17.2386" y="25.7101" width="115.106" height="96.7767" filterUnits="userSpaceOnUse" color-interpolation-filters="sRGB">
<feFlood flood-opacity="0" result="BackgroundImageFix"/>
<feColorMatrix in="SourceAlpha" type="matrix" values="0 0 0 0 0 0 0 0 0 0 0 0 0 0 0 0 0 0 127 0"/>
<feOffset dy="4"/>
<feGaussianBlur stdDeviation="2"/>
<feColorMatrix type="matrix" values="0 0 0 0 0 0 0 0 0 0 0 0 0 0 0 0 0 0 0.25 0"/>
<feBlend mode="normal" in2="BackgroundImageFix" result="effect1_dropShadow"/>
<feBlend mode="normal" in="SourceGraphic" in2="effect1_dropShadow" result="shape"/>
<feColorMatrix in="SourceAlpha" type="matrix" values="0 0 0 0 0 0 0 0 0 0 0 0 0 0 0 0 0 0 127 0" result="hardAlpha"/>
<feOffset dy="4"/>
<feGaussianBlur stdDeviation="2"/>
<feComposite in2="hardAlpha" operator="arithmetic" k2="-1" k3="1"/>
<feColorMatrix type="matrix" values="0 0 0 0 0 0 0 0 0 0 0 0 0 0 0 0 0 0 0.25 0"/>
<feBlend mode="normal" in2="shape" result="effect2_innerShadow"/>
</filter>
<linearGradient id="paint0_linear" x1="44" y1="-122.5" x2="44" y2="575.5" gradientUnits="userSpaceOnUse">
<stop stop-color="white"/>
<stop offset="0.731611" stop-color="white" stop-opacity="0"/>
</linearGradient>
<linearGradient id="paint1_linear" x1="106" y1="-69.5" x2="106" y2="522.5" gradientUnits="userSpaceOnUse">
<stop stop-color="white"/>
<stop offset="0.731611" stop-color="white" stop-opacity="0"/>
</linearGradient>
<clipPath id="clip0">
<rect width="64" height="281" fill="white" transform="translate(43 86)"/>
</clipPath>
</defs>
</svg>
