<svg width="150" height="446" viewBox="0 0 150 446" fill="none" xmlns="http://www.w3.org/2000/svg">
<g clip-path="url(#clip0)">
<rect width="2" height="698" transform="matrix(1 0 0 -1 43 520.5)" fill="url(#paint0_linear)"/>
<rect width="2" height="592" transform="matrix(1 0 0 -1 105 467.5)" fill="url(#paint1_linear)"/>
</g>
<path d="M75 446L139.952 408.5V333.5L75 296L10.0481 333.5L10.0481 408.5L75 446Z" fill="white"/>
<g clip-path="url(#clip1)" filter="url(#filter0_di)">
<path d="M18.2178 371.775C18.2178 363.277 26.4923 355.344 39.5379 350.872C36.9328 337.72 39.071 327.12 46.2128 322.989C53.5539 318.744 64.4903 321.682 74.8704 330.782C84.9886 322.05 95.2148 318.613 102.35 322.756C109.684 327.013 111.915 338.333 109.238 351.896C122.825 356.401 130.426 363.165 130.426 371.775C130.426 380.076 122.136 387.257 109.266 391.7C112.148 405.823 109.706 416.167 102.269 420.468C95.0983 424.614 84.7533 421 74.4863 412.04C63.8052 421.551 53.5623 424.454 46.1321 420.141C38.9686 415.982 36.9244 405.189 39.5379 391.794C26.9328 387.386 18.2178 380.043 18.2178 371.775Z" fill="white"/>
<path d="M106.541 387.288C105.507 387.645 104.436 387.982 103.333 388.302C103.514 389.044 103.68 389.776 103.828 390.496C106.257 402.317 104.669 411.84 99.2473 414.975C94.0488 417.981 85.5469 414.847 76.9605 407.353C76.1348 406.632 75.3068 405.869 74.4791 405.07C73.9277 405.599 73.3771 406.11 72.8279 406.599C63.8291 414.612 54.8091 417.989 49.3929 414.844C44.1993 411.829 42.6613 402.877 44.8471 391.674C45.0582 390.592 45.3049 389.487 45.5839 388.364C44.3073 388 43.0749 387.613 41.8957 387.201C31.3455 383.512 24.6077 377.731 24.6077 371.734C24.6077 365.541 31.8407 359.329 42.8296 355.562C43.6968 355.265 44.5966 354.984 45.524 354.717C45.2229 353.502 44.9611 352.311 44.7414 351.15C42.6572 340.142 44.2848 331.401 49.4646 328.405C54.8148 325.311 63.7939 328.491 72.5374 336.156C73.2285 336.762 73.922 337.404 74.6168 338.077C75.5173 337.208 76.4164 336.385 77.3108 335.613C85.7798 328.304 94.1444 325.353 99.3193 328.357C104.664 331.46 106.401 340.85 104.146 352.274C103.974 353.147 103.773 354.038 103.548 354.945C104.179 355.132 104.798 355.325 105.402 355.526C116.826 359.322 124.258 365.458 124.258 371.734C124.258 377.752 117.303 383.572 106.541 387.288Z" fill="#53C1DE"/>
<path d="M104.063 359.578C103.518 359.397 102.959 359.223 102.389 359.053C101.128 363.057 99.4258 367.315 97.3428 371.713C99.3305 376.007 100.967 380.211 102.193 384.189C103.212 383.893 104.201 383.581 105.155 383.252C114.376 380.068 120.001 375.361 120.001 371.734C120.001 367.871 113.926 362.856 104.063 359.578ZM99.9699 351.445C100.967 346.394 101.11 341.826 100.449 338.256C99.8555 335.048 98.662 332.909 97.1862 332.052C94.0457 330.229 87.3299 332.599 80.0871 338.849C79.2567 339.566 78.4204 340.331 77.5814 341.14C80.3893 344.22 83.1956 347.8 85.9345 351.776C90.7518 352.205 95.3032 352.906 99.4305 353.863C99.6338 353.04 99.8144 352.234 99.9699 351.445ZM58.5808 332.367C55.5125 331.28 53.0688 331.249 51.5916 332.103C48.4483 333.922 47.1416 340.94 48.9241 350.354C49.1282 351.432 49.3712 352.539 49.6513 353.672C53.7335 352.766 58.2514 352.115 63.0803 351.722C65.8377 347.832 68.725 344.255 71.6347 341.124C70.999 340.508 70.3657 339.922 69.736 339.37C65.8698 335.981 61.9953 333.576 58.5808 332.367ZM44.2064 359.602C39.3473 361.268 35.3345 363.432 32.5839 365.794C30.1123 367.917 28.8645 370.024 28.8645 371.734C28.8645 375.373 34.2743 380.015 43.297 383.169C44.3917 383.552 45.5378 383.913 46.7271 384.252C47.974 380.184 49.6098 375.931 51.5838 371.63C49.5843 367.266 47.9252 362.945 46.666 358.83C45.8182 359.074 44.9968 359.331 44.2064 359.602ZM49.0248 392.494C47.1521 402.092 48.3958 409.333 51.5256 411.149C54.8594 413.085 62.2314 410.325 70.0012 403.407C70.4979 402.964 70.9965 402.502 71.4965 402.023C68.6012 398.905 65.7403 395.356 63.0074 391.488C58.3208 391.052 53.8346 390.352 49.7098 389.415C49.4505 390.461 49.2208 391.489 49.0248 392.494ZM92.0096 381.85C91.0236 383.558 90.0113 385.225 88.9793 386.848C92.1588 386.444 95.2051 385.909 98.0658 385.255C97.2069 382.494 96.1365 379.608 94.8764 376.649C93.9725 378.37 93.0164 380.106 92.0096 381.85ZM74.4805 398.972C76.4441 396.838 78.4105 394.457 80.3446 391.872C78.3956 391.965 76.4224 392.013 74.433 392.013C72.4623 392.013 70.5037 391.966 68.5668 391.875C70.5028 394.435 72.4863 396.814 74.4805 398.972ZM56.8391 381.82C55.8542 380.107 54.9158 378.382 54.0261 376.653C52.7864 379.601 51.7259 382.5 50.8596 385.3C53.7028 385.938 56.7347 386.46 59.8939 386.855C58.8474 385.218 57.8268 383.538 56.8391 381.821V381.82ZM59.9849 356.309C56.7208 356.674 53.6433 357.169 50.8009 357.789C51.681 360.639 52.765 363.6 54.0309 366.612C54.9229 364.884 55.865 363.158 56.856 361.441H56.8562C57.8656 359.692 58.9114 357.979 59.9849 356.309ZM74.5983 344.196C72.5806 346.379 70.5681 348.794 68.6026 351.391C70.5106 351.316 72.4559 351.278 74.433 351.278C76.4641 351.278 78.472 351.324 80.4484 351.412C78.5079 348.768 76.5486 346.349 74.5983 344.196ZM94.917 366.765C96.2489 363.721 97.3717 360.775 98.2632 357.974C95.3739 357.313 92.2544 356.781 88.9676 356.385C90.0021 358.029 91.0232 359.726 92.0266 361.471C93.0418 363.236 94.0056 365.004 94.917 366.765ZM88.3392 363.603C86.7814 360.895 85.1822 358.309 83.5587 355.868C80.6016 355.656 77.5467 355.547 74.433 355.547C71.3319 355.547 68.3154 355.644 65.4107 355.833C63.7217 358.305 62.0877 360.899 60.5399 363.58H60.5403C58.9966 366.254 57.5758 368.95 56.2884 371.632C57.5754 374.319 58.9925 377.019 60.5273 379.688L60.527 379.687C62.0659 382.364 63.6855 384.944 65.3589 387.402C68.3225 387.626 71.3615 387.744 74.4328 387.744H74.433C77.5181 387.744 80.561 387.625 83.5237 387.399C85.1716 384.96 86.7802 382.387 88.3251 379.711C89.8877 377.004 91.323 374.322 92.621 371.692C91.3269 369.017 89.8948 366.309 88.3392 363.603ZM97.1209 411.276C100.458 409.347 101.756 401.564 99.659 391.358C99.5253 390.706 99.3747 390.043 99.2111 389.371C95.0768 390.328 90.5874 391.039 85.8871 391.482C83.1489 395.392 80.3114 398.947 77.4633 402.025C78.229 402.763 78.9937 403.468 79.7552 404.133C87.1121 410.553 93.9881 413.088 97.1209 411.276Z" fill="white"/>
<path d="M74.433 380.658C79.3474 380.658 83.3315 376.663 83.3315 371.734C83.3315 366.806 79.3474 362.81 74.433 362.81C69.5186 362.81 65.5345 366.806 65.5345 371.734C65.5345 376.663 69.5186 380.658 74.433 380.658Z" fill="#53C1DE"/>
</g>
<defs>
<filter id="filter0_di" x="13.8853" y="320.803" width="120.9" height="109.722" filterUnits="userSpaceOnUse" color-interpolation-filters="sRGB">
<feFlood flood-opacity="0" result="BackgroundImageFix"/>
<feColorMatrix in="SourceAlpha" type="matrix" values="0 0 0 0 0 0 0 0 0 0 0 0 0 0 0 0 0 0 127 0"/>
<feOffset dy="4"/>
<feGaussianBlur stdDeviation="2"/>
<feColorMatrix type="matrix" values="0 0 0 0 0 0 0 0 0 0 0 0 0 0 0 0 0 0 0.25 0"/>
<feBlend mode="normal" in2="BackgroundImageFix" result="effect1_dropShadow"/>
<feBlend mode="normal" in="SourceGraphic" in2="effect1_dropShadow" result="shape"/>
<feColorMatrix in="SourceAlpha" type="matrix" values="0 0 0 0 0 0 0 0 0 0 0 0 0 0 0 0 0 0 127 0" result="hardAlpha"/>
<feOffset dy="4"/>
<feGaussianBlur stdDeviation="2"/>
<feComposite in2="hardAlpha" operator="arithmetic" k2="-1" k3="1"/>
<feColorMatrix type="matrix" values="0 0 0 0 0 0 0 0 0 0 0 0 0 0 0 0 0 0 0.25 0"/>
<feBlend mode="normal" in2="shape" result="effect2_innerShadow"/>
</filter>
<linearGradient id="paint0_linear" x1="1" y1="0" x2="1" y2="698" gradientUnits="userSpaceOnUse">
<stop stop-color="white"/>
<stop offset="0.731611" stop-color="white" stop-opacity="0"/>
</linearGradient>
<linearGradient id="paint1_linear" x1="1" y1="0" x2="1" y2="592" gradientUnits="userSpaceOnUse">
<stop stop-color="white"/>
<stop offset="0.731611" stop-color="white" stop-opacity="0"/>
</linearGradient>
<clipPath id="clip0">
<rect width="64" height="343" fill="white" transform="matrix(1 0 0 -1 43 343)"/>
</clipPath>
<clipPath id="clip1">
<rect width="112.9" height="101.722" fill="white" transform="matrix(1 0 0 -1 17.8853 422.526)"/>
</clipPath>
</defs>
</svg>
