<svg width="70" height="70" viewBox="0 0 70 70" fill="none" xmlns="http://www.w3.org/2000/svg">
<g opacity="0.7" clip-path="url(#clip0)">
<path d="M0.000244141 33.3891V33.2914C0.878905 21.9665 4.97932 13.4727 12.1062 8.10313C19.1355 2.63591 26.7506 -7.90036e-05 35.0491 -7.90036e-05C43.738 -0.097708 51.8412 2.83116 59.0658 8.68891C66.388 14.449 70.0002 23.0404 70.0002 34.1701V34.8535C70.0002 46.0808 66.388 54.4769 59.0658 60.237C51.7436 66.0948 43.6404 69.0237 34.9514 69.0237H34.5609C26.0672 68.926 18.2569 65.9971 11.0323 60.1394C3.80778 54.3793 0.0978732 45.4951 0.000244141 33.3891ZM32.9012 18.0613V2.63591H30.5581C30.07 3.22168 29.6795 3.90508 29.2889 4.49086C28.8984 5.07663 28.5079 5.66241 28.1174 6.34581C27.7269 6.93158 27.2387 7.71262 26.9459 8.29839C26.5553 8.88416 26.2624 9.46994 25.9696 10.1533C25.3838 11.1296 24.8956 12.1059 24.5051 12.9846C24.017 13.8632 23.6265 14.7419 23.3336 15.5229C23.9194 15.9135 24.6028 16.4016 25.3838 16.6945C26.2624 16.9874 27.1411 17.2803 28.0198 17.4755C28.9961 17.6708 29.8747 17.7684 30.6558 17.866C31.5344 17.9637 32.3154 18.0613 32.9012 18.0613ZM37.0016 2.63591V17.9637C37.4898 17.9637 38.0756 18.0613 38.6613 17.9637C39.2471 17.9637 39.9305 17.866 40.5163 17.7684C41.5902 17.5731 42.8594 17.2803 43.8357 16.9874C44.9096 16.5969 45.8859 16.1087 46.5693 15.5229C45.3977 12.6917 44.1286 10.4462 42.8594 8.29839C41.5902 6.15055 40.1258 4.2956 38.5637 2.73353V2.63591H37.0016ZM26.4577 3.51457V3.41694C25.7743 3.70982 25.0909 4.19797 24.3099 4.49086C23.6265 4.78374 22.7478 5.17426 22.0644 5.56478C20.6976 6.24818 19.3308 7.02921 17.964 7.90787C16.6948 8.78654 15.4256 9.76283 14.3517 10.7391C14.7422 11.1296 15.2304 11.5201 15.6209 11.813C16.0114 12.1059 16.4995 12.4964 16.9877 12.887C17.3782 13.0822 17.8664 13.3751 18.3545 13.7656C18.8426 14.0585 19.4284 14.449 20.0142 14.8395C20.7952 13.0822 21.5763 11.2273 22.5525 9.56757C23.5288 7.81024 24.6028 6.15055 25.6767 4.68611C25.7743 4.49086 25.8719 4.2956 26.0672 4.10034C26.1648 4.00271 26.2624 3.70982 26.4577 3.51457ZM56.3322 10.7391V10.6415C53.8915 8.78654 51.7436 7.22447 49.5958 6.24818C47.4479 5.27189 45.3001 4.2956 43.3475 3.51457C44.9096 5.07663 46.2764 7.02921 47.1551 8.88416C48.1313 10.8367 49.1076 12.887 49.8887 14.8395C50.2792 14.6443 50.7673 14.449 51.3531 14.0585C51.8412 13.7656 52.5247 13.4727 53.1104 13.1798C53.6962 12.7893 54.1843 12.3988 54.7701 12.0083C55.3559 11.5201 55.9417 11.1296 56.3322 10.7391ZM54.6725 32.5104H65.8998C65.8998 28.8981 65.1188 25.4811 63.6544 21.9665C62.2876 18.5494 60.335 15.7182 57.8942 13.2775V13.1798C57.4061 13.9609 56.7227 14.6443 56.0393 15.1324C55.2583 15.6206 54.5749 16.0111 53.7938 16.4016C53.3057 16.6945 52.8175 17.085 52.3294 17.2803C51.8412 17.5731 51.1578 17.7684 50.6697 18.0613C51.0602 18.8423 51.4507 19.721 51.8412 20.502C52.1341 21.3807 52.6223 22.357 52.8175 23.2356C53.4033 24.7977 53.7938 26.4574 54.1843 28.1171C54.4772 29.5815 54.6725 31.1436 54.6725 32.5104ZM19.3308 18.0613V17.9637C18.5498 17.5731 17.6711 17.2803 16.9877 16.8897C16.3043 16.4016 15.6209 15.9135 15.0351 15.5229C14.4493 15.2301 13.8636 14.8395 13.3754 14.449C12.8873 14.0585 12.4968 13.668 12.1062 13.2775C9.56789 15.7182 7.71294 18.4518 6.54139 21.6736C5.27221 24.8953 4.39355 28.5076 4.00303 32.4128H16.0114C16.0114 29.6791 16.4019 27.0432 17.0853 24.4072C17.6711 21.6736 18.5498 19.6234 19.3308 18.0613ZM32.9012 32.4128V21.1854C32.1202 21.2831 31.1439 21.2831 30.2652 21.1854C29.2889 21.0878 28.3127 20.7949 27.434 20.502C26.653 20.3068 25.6767 20.1115 24.8956 19.8186C24.017 19.6234 23.1383 19.2328 22.4549 18.8423C21.8691 19.8186 21.381 20.9902 20.9905 22.2593C20.5023 23.4309 20.2094 24.7001 19.9166 25.8716C19.7213 27.0432 19.6237 28.3123 19.526 29.3863C19.4284 30.4602 19.3308 31.5341 19.3308 32.4128H32.9012ZM37.0016 21.3807V32.4128H51.4507C51.4507 31.827 51.4507 31.1436 51.3531 30.3626C51.1578 29.6791 51.0602 28.8005 50.9626 28.0195C50.6697 26.8479 50.3768 25.5787 49.9863 24.4072C49.5958 23.3333 49.2053 22.2593 48.7171 21.3807C48.5219 20.8925 48.3266 20.3068 48.1313 19.9162C47.8385 19.4281 47.5456 19.1352 47.3503 18.8423C46.2764 19.6234 44.812 20.1115 43.0546 20.502C41.3949 20.8925 39.4424 21.2831 37.685 21.3807H37.0016ZM16.0114 35.6345H4.00303C4.00303 37.2942 4.29592 39.1492 4.78407 41.3946C5.27221 43.7377 6.2485 45.8856 7.32242 48.2287C7.81056 49.4002 8.39634 50.5718 8.98211 51.7433C9.66552 52.8172 10.4465 53.9888 11.2276 55.0627C11.8134 54.6722 12.3991 54.3793 12.8873 54.0864C13.473 53.7935 14.1565 53.403 14.7422 53.1101C15.4256 52.8172 16.109 52.5243 16.8901 52.1338C17.5735 51.8409 18.4521 51.4504 19.3308 51.0599C18.5498 48.6192 17.6711 46.2761 17.0853 43.6401C16.4019 41.1017 16.0114 38.5634 16.0114 35.7322V35.6345ZM32.9012 47.0571V35.6345H19.3308C19.3308 36.4156 19.4284 37.5871 19.6237 38.7587C19.7213 39.9302 20.0142 41.1994 20.2094 42.4686C20.6 43.8354 20.8929 45.2022 21.2834 46.3737C21.6739 47.5453 22.0644 48.5216 22.4549 49.4002C24.2122 48.7168 25.9696 48.2287 27.1411 47.9358C28.4103 47.5453 29.5818 47.2524 30.7534 47.1547H31.8273C32.2178 47.0571 32.6083 47.0571 32.9012 47.0571ZM37.0016 35.6345V46.9595C37.685 47.0571 38.4661 47.1547 39.2471 47.2524C40.1258 47.35 41.1997 47.5453 42.0783 47.7405L43.5428 48.0334C44.0309 48.2287 44.6167 48.3263 45.1048 48.4239C45.6906 48.6192 46.2764 48.7168 46.8622 48.9121C47.3503 49.1073 47.8385 49.205 48.229 49.4002C49.4982 46.1785 50.2792 43.5425 50.7673 41.297C51.2555 39.1492 51.4507 37.2942 51.4507 35.7322V35.6345H37.0016ZM65.8998 35.7322V35.6345H54.6725V36.2203C54.5749 38.0752 54.282 40.2231 53.8915 42.4686C53.5009 44.6164 52.6223 47.1547 51.4507 50.2789C53.0128 51.0599 54.4772 51.8409 55.6488 52.622C56.8203 53.403 57.8942 54.2817 58.6753 55.0627C60.335 53.403 61.7994 51.1575 63.0686 48.2287C64.3378 45.3974 65.2164 42.4686 65.7046 39.3444C65.8022 38.7587 65.8022 38.1729 65.8998 37.5871V35.7322ZM32.9012 65.4114V50.1812C30.4605 50.5718 28.4103 51.0599 26.8482 51.4504C25.2862 51.8409 24.1146 52.2315 23.3336 52.622C23.9194 54.0864 24.5051 55.3556 25.0909 56.5271C25.6767 57.6011 26.3601 58.7726 26.9459 59.7489C27.1411 60.1394 27.5316 60.5299 27.8245 61.0181C28.1174 61.4086 28.3127 61.8967 28.6055 62.2872C28.8984 62.7754 29.1913 63.3612 29.4842 63.9469C29.8747 64.4351 30.1676 65.0209 30.5581 65.4114H32.9012ZM37.0016 65.4114H39.2471C40.1258 64.728 41.0044 63.7517 41.6878 62.6778C42.4689 61.6038 43.3475 60.3347 43.9333 59.2607C44.6167 57.9916 45.3001 56.82 45.8859 55.6485C46.4717 54.4769 46.9598 53.403 47.3503 52.622C46.2764 52.2315 44.812 51.8409 43.3475 51.4504C41.8831 51.0599 39.8329 50.6694 37.0016 50.2789V65.4114ZM56.3322 57.4058V57.3082C56.1369 57.0153 55.7464 56.6248 55.4535 56.3319C55.1606 56.039 54.6725 55.6485 54.1843 55.3556C53.7938 55.0627 53.3057 54.7698 52.7199 54.4769C52.1341 54.184 51.3531 53.7935 50.6697 53.403C50.2792 54.184 49.5958 55.5508 48.6195 57.4058C47.7408 59.2607 46.1788 61.5062 44.2262 63.9469C46.6669 63.5564 48.8148 62.6778 50.7673 61.5062C52.9152 60.4323 54.7701 58.9679 56.3322 57.4058ZM20.0142 54.2817V54.184C19.3308 54.5746 18.2569 55.0627 17.1829 55.5508C16.0114 56.039 14.7422 56.6248 13.5707 57.4058C14.2541 57.9916 14.9375 58.5773 15.5233 58.9679C16.109 59.456 16.7924 59.8465 17.3782 60.237C18.4521 60.9204 19.7213 61.6038 20.9905 62.1896C22.2597 62.7754 23.8217 63.3612 25.7743 63.9469C25.0909 63.1659 24.6028 62.1896 24.1146 61.4086C23.6265 60.6276 23.0407 59.8465 22.5525 59.0655C22.0644 58.2845 21.6739 57.4058 21.2834 56.6248C20.7952 55.8437 20.4047 55.0627 20.0142 54.2817Z" fill="white"/>
</g>
<defs>
<clipPath id="clip0">
<rect width="70" height="69.0237" fill="white" transform="translate(0.000244141)"/>
</clipPath>
</defs>
</svg>
