<svg width="150" height="367" viewBox="0 0 150 367" fill="none" xmlns="http://www.w3.org/2000/svg">
<g clip-path="url(#clip0)">
<rect x="43" y="-122.5" width="2" height="698" fill="url(#paint0_linear)"/>
<rect x="105" y="-69.5" width="2" height="592" fill="url(#paint1_linear)"/>
</g>
<path d="M75 0L139.952 37.5V112.5L75 150L10.0481 112.5L10.0481 37.5L75 0Z" fill="white"/>
<g filter="url(#filter0_di)">
<path d="M101.37 99.882H100.965V99.6503H102.055V99.882H101.653V101.038H101.37V99.882ZM103.545 99.9423H103.538L103.137 101.038H102.953L102.555 99.9423H102.55V101.038H102.283V99.6505H102.676L103.045 100.633L103.414 99.6505H103.805V101.038H103.544V99.9423H103.545Z" fill="#E76F00"/>
<path d="M65.1182 71.5052C65.1182 71.5052 62.3007 73.181 67.1234 73.748C72.9659 74.4297 75.9519 74.3319 82.3904 73.0857C82.3904 73.0857 84.0831 74.1712 86.4471 75.1114C72.0138 81.4378 53.7816 74.7449 65.1182 71.5052Z" fill="#5382A1"/>
<path d="M63.3546 63.2495C63.3546 63.2495 60.1944 65.6419 65.0207 66.1524C71.2618 66.8109 76.1906 66.8648 84.7193 65.1852C84.7193 65.1852 85.8989 66.4083 87.7538 67.0772C70.303 72.296 50.8659 67.4887 63.3546 63.2495Z" fill="#5382A1"/>
<path d="M78.223 49.2452C81.7793 53.4328 77.2886 57.2011 77.2886 57.2011C77.2886 57.2011 86.3188 52.4334 82.1716 46.4632C78.2983 40.8956 75.3279 38.1293 91.4082 28.5914C91.4082 28.5914 66.1675 35.0386 78.223 49.2452Z" fill="#E76F00"/>
<path d="M97.3122 77.6116C97.3122 77.6116 99.3972 79.3687 95.0159 80.7279C86.6848 83.3091 60.3409 84.0885 53.0227 80.8308C50.3919 79.6603 55.3253 78.036 56.8771 77.6952C58.4955 77.3363 59.4204 77.4031 59.4204 77.4031C56.4948 75.2953 40.5104 81.5419 51.3011 83.3309C80.729 88.2117 104.945 81.133 97.3122 77.6116Z" fill="#5382A1"/>
<path d="M66.4732 54.6956C66.4732 54.6956 53.073 57.9507 61.7278 59.1328C65.3822 59.6332 72.667 59.52 79.4527 58.9385C84.9983 58.4601 90.5667 57.4428 90.5667 57.4428C90.5667 57.4428 88.6113 58.2993 87.1966 59.2873C73.5889 62.9474 47.3014 61.2447 54.8692 57.5008C61.2694 54.3367 66.4732 54.6956 66.4732 54.6956Z" fill="#5382A1"/>
<path d="M90.5115 68.4376C104.344 61.0862 97.9485 54.0215 93.4844 54.9733C92.3902 55.2062 91.9023 55.408 91.9023 55.408C91.9023 55.408 92.3085 54.7572 93.0844 54.4756C101.916 51.3001 108.708 63.8411 90.2335 68.8081C90.2335 68.8083 90.4475 68.6126 90.5115 68.4376Z" fill="#5382A1"/>
<path d="M82.1716 13.1902C82.1716 13.1902 89.8325 21.0278 74.9056 33.0798C62.9359 42.7475 72.1762 48.2598 74.9007 54.5579C67.9137 48.1107 62.7862 42.4352 66.2261 37.1529C71.2751 29.3991 85.2626 25.6397 82.1716 13.1902Z" fill="#E76F00"/>
<path d="M67.8324 88.3582C81.1102 89.2274 101.5 87.8759 101.983 81.4504C101.983 81.4504 101.054 83.8863 91.0093 85.8207C79.6764 88.0019 65.6989 87.7472 57.4087 86.3493C57.4089 86.3491 59.1058 87.7858 67.8324 88.3582Z" fill="#5382A1"/>
<path d="M65.6564 112.91C64.4038 114.021 63.0809 114.645 61.8937 114.645C60.1992 114.645 59.2837 113.606 59.2837 111.939C59.2837 110.136 60.2646 108.818 64.1999 108.818H65.6562V112.91H65.6564ZM69.1126 116.898V104.553C69.1126 101.399 67.3539 99.3185 63.1135 99.3185C60.638 99.3185 58.4695 99.9436 56.707 100.741L57.2157 102.926C58.6034 102.405 60.3997 101.92 62.1628 101.92C64.6055 101.92 65.6564 102.926 65.6564 105.006V106.566H64.4372C58.5023 106.566 55.8251 108.922 55.8251 112.459C55.8251 115.511 57.5894 117.246 60.9112 117.246C63.0465 117.246 64.6405 116.344 66.1305 115.025L66.401 116.899H69.1126V116.898Z" fill="#E76F00"/>
<path d="M80.6474 116.898H76.3367L71.1487 99.6311H74.9132L78.1323 110.24L78.8479 113.431C80.4765 108.818 81.6283 104.138 82.2044 99.6311H85.8663C84.8852 105.317 83.1197 111.558 80.6474 116.898Z" fill="#E76F00"/>
<path d="M97.1839 112.91C95.9289 114.021 94.6036 114.645 93.4165 114.645C91.7249 114.645 90.807 113.606 90.807 111.939C90.807 110.136 91.7903 108.818 95.7252 108.818H97.1839V112.91ZM100.64 116.898V104.553C100.64 101.399 98.8766 99.3185 94.6412 99.3185C92.1639 99.3185 89.9946 99.9436 88.2329 100.741L88.7409 102.926C90.1291 102.405 91.9288 101.92 93.6905 101.92C96.1314 101.92 97.1839 102.926 97.1839 105.006V106.566H95.9627C90.026 106.566 87.35 108.922 87.35 112.459C87.35 115.511 89.1129 117.246 92.4342 117.246C94.5706 117.246 96.164 116.344 97.6566 115.025L97.9281 116.899H100.64V116.898Z" fill="#E76F00"/>
<path d="M52.0354 119.831C51.0501 121.302 49.4587 122.466 47.7165 123.125L46.0101 121.071C47.3362 120.375 48.4735 119.251 49.0019 118.204C49.4589 117.273 49.6481 116.073 49.6481 113.204V93.4902H53.3202V112.934C53.32 116.77 53.0201 118.32 52.0354 119.831Z" fill="#E76F00"/>
</g>
<defs>
<filter id="filter0_di" x="40.713" y="12.2961" width="67.6174" height="119.783" filterUnits="userSpaceOnUse" color-interpolation-filters="sRGB">
<feFlood flood-opacity="0" result="BackgroundImageFix"/>
<feColorMatrix in="SourceAlpha" type="matrix" values="0 0 0 0 0 0 0 0 0 0 0 0 0 0 0 0 0 0 127 0"/>
<feOffset dy="4"/>
<feGaussianBlur stdDeviation="2"/>
<feColorMatrix type="matrix" values="0 0 0 0 0 0 0 0 0 0 0 0 0 0 0 0 0 0 0.25 0"/>
<feBlend mode="normal" in2="BackgroundImageFix" result="effect1_dropShadow"/>
<feBlend mode="normal" in="SourceGraphic" in2="effect1_dropShadow" result="shape"/>
<feColorMatrix in="SourceAlpha" type="matrix" values="0 0 0 0 0 0 0 0 0 0 0 0 0 0 0 0 0 0 127 0" result="hardAlpha"/>
<feOffset dy="4"/>
<feGaussianBlur stdDeviation="2"/>
<feComposite in2="hardAlpha" operator="arithmetic" k2="-1" k3="1"/>
<feColorMatrix type="matrix" values="0 0 0 0 0 0 0 0 0 0 0 0 0 0 0 0 0 0 0.25 0"/>
<feBlend mode="normal" in2="shape" result="effect2_innerShadow"/>
</filter>
<linearGradient id="paint0_linear" x1="44" y1="-122.5" x2="44" y2="575.5" gradientUnits="userSpaceOnUse">
<stop stop-color="white"/>
<stop offset="0.731611" stop-color="white" stop-opacity="0"/>
</linearGradient>
<linearGradient id="paint1_linear" x1="106" y1="-69.5" x2="106" y2="522.5" gradientUnits="userSpaceOnUse">
<stop stop-color="white"/>
<stop offset="0.731611" stop-color="white" stop-opacity="0"/>
</linearGradient>
<clipPath id="clip0">
<rect width="64" height="281" fill="white" transform="translate(43 86)"/>
</clipPath>
</defs>
</svg>
