<svg width="90" height="90" viewBox="0 0 90 90" fill="none" xmlns="http://www.w3.org/2000/svg">
<g opacity="0.7" clip-path="url(#clip0)">
<path d="M75.0002 67.5C79.1252 67.5 82.5002 64.125 82.5002 60V22.5C82.5002 18.375 79.1252 15 75.0002 15H15.0002C10.8752 15 7.50024 18.375 7.50024 22.5V60C7.50024 64.125 10.8752 67.5 15.0002 67.5H3.75024C1.68774 67.5 0.000244141 69.1875 0.000244141 71.25C0.000244141 73.3125 1.68774 75 3.75024 75H86.2502C88.3127 75 90.0002 73.3125 90.0002 71.25C90.0002 69.1875 88.3127 67.5 86.2502 67.5H75.0002ZM18.7502 22.5H71.2502C73.3127 22.5 75.0002 24.1875 75.0002 26.25V56.25C75.0002 58.3125 73.3127 60 71.2502 60H18.7502C16.6877 60 15.0002 58.3125 15.0002 56.25V26.25C15.0002 24.1875 16.6877 22.5 18.7502 22.5Z" fill="white"/>
</g>
<defs>
<clipPath id="clip0">
<rect width="90" height="90" fill="white" transform="translate(0.000244141)"/>
</clipPath>
</defs>
</svg>
