<svg width="70" height="70" viewBox="0 0 70 70" fill="none" xmlns="http://www.w3.org/2000/svg">
<g opacity="0.7" clip-path="url(#clip0)">
<path d="M10.8147 50.9278C8.12134 59.0489 6.76782 61.7559 0.000244141 61.7559C22.9963 71.2305 27.0569 54.9883 27.0569 54.9883L20.2893 48.2207C20.2893 48.2207 13.5217 46.8809 10.8147 50.9278ZM68.9885 6.30277C67.0745 4.38871 63.7932 5.76957 63.7932 5.76957C59.0081 6.7266 32.4709 33.3594 32.4709 33.3594L41.9456 42.834C41.9456 42.834 68.5784 16.2969 69.5354 11.5118C69.5217 11.4981 70.9026 8.20316 68.9885 6.30277ZM22.9963 45.5274L29.7639 52.295L39.2385 45.5274L29.7639 36.0528L22.9963 45.5274Z" fill="white"/>
</g>
<defs>
<clipPath id="clip0">
<rect width="70" height="70" fill="white" transform="translate(0.000244141)"/>
</clipPath>
</defs>
</svg>
