<svg width="40" height="40" viewBox="0 0 40 40" fill="none" xmlns="http://www.w3.org/2000/svg">
<path d="M20 0C8.95475 0 0 8.95475 0 20C0 31.0453 8.95475 40 20 40C31.0453 40 40 31.0453 40 20C40 8.95475 31.0453 0 20 0Z" fill="url(#paint0_linear)"/>
<path d="M15.25 7H25.75C29.75 7 33 10.25 33 14.25V24.75C33 26.6728 32.2362 28.5169 30.8765 29.8765C29.5169 31.2362 27.6728 32 25.75 32H15.25C11.25 32 8 28.75 8 24.75V14.25C8 12.3272 8.76384 10.4831 10.1235 9.12348C11.4831 7.76384 13.3272 7 15.25 7ZM15 9.5C13.8065 9.5 12.6619 9.97411 11.818 10.818C10.9741 11.6619 10.5 12.8065 10.5 14V25C10.5 27.4875 12.5125 29.5 15 29.5H26C27.1935 29.5 28.3381 29.0259 29.182 28.182C30.0259 27.3381 30.5 26.1935 30.5 25V14C30.5 11.5125 28.4875 9.5 26 9.5H15ZM27.0625 11.375C27.4769 11.375 27.8743 11.5396 28.1674 11.8326C28.4604 12.1257 28.625 12.5231 28.625 12.9375C28.625 13.3519 28.4604 13.7493 28.1674 14.0424C27.8743 14.3354 27.4769 14.5 27.0625 14.5C26.6481 14.5 26.2507 14.3354 25.9576 14.0424C25.6646 13.7493 25.5 13.3519 25.5 12.9375C25.5 12.5231 25.6646 12.1257 25.9576 11.8326C26.2507 11.5396 26.6481 11.375 27.0625 11.375ZM20.5 13.25C22.1576 13.25 23.7473 13.9085 24.9194 15.0806C26.0915 16.2527 26.75 17.8424 26.75 19.5C26.75 21.1576 26.0915 22.7473 24.9194 23.9194C23.7473 25.0915 22.1576 25.75 20.5 25.75C18.8424 25.75 17.2527 25.0915 16.0806 23.9194C14.9085 22.7473 14.25 21.1576 14.25 19.5C14.25 17.8424 14.9085 16.2527 16.0806 15.0806C17.2527 13.9085 18.8424 13.25 20.5 13.25ZM20.5 15.75C19.5054 15.75 18.5516 16.1451 17.8483 16.8483C17.1451 17.5516 16.75 18.5054 16.75 19.5C16.75 20.4946 17.1451 21.4484 17.8483 22.1517C18.5516 22.8549 19.5054 23.25 20.5 23.25C21.4946 23.25 22.4484 22.8549 23.1517 22.1517C23.8549 21.4484 24.25 20.4946 24.25 19.5C24.25 18.5054 23.8549 17.5516 23.1517 16.8483C22.4484 16.1451 21.4946 15.75 20.5 15.75Z" fill="white"/>
<defs>
<linearGradient id="paint0_linear" x1="11.3639" y1="4.01078" x2="29.4124" y2="40.1078" gradientUnits="userSpaceOnUse">
<stop stop-color="#8D1DB5"/>
<stop offset="1" stop-color="#FFB800"/>
</linearGradient>
</defs>
</svg>
