<svg width="39" height="57" viewBox="0 0 39 57" fill="none" xmlns="http://www.w3.org/2000/svg">
<g opacity="0.7">
<path opacity="0.8" d="M12.2076 47.394V56.214C12.2076 56.55 12.0396 56.718 11.7036 56.718H10.6396C10.3036 56.718 10.1356 56.55 10.1356 56.214V47.394C10.1356 47.058 10.3036 46.89 10.6396 46.89H11.7036C12.0396 46.89 12.2076 47.058 12.2076 47.394ZM15.5641 50.026V53.582C15.5641 54.1886 15.6481 54.5946 15.8161 54.8C15.9934 54.996 16.3388 55.094 16.8521 55.094H17.5801C18.0934 55.094 18.4341 54.996 18.6021 54.8C18.7794 54.5946 18.8681 54.1886 18.8681 53.582V50.026C18.8681 49.4193 18.7794 49.018 18.6021 48.822C18.4341 48.6166 18.0934 48.514 17.5801 48.514H16.8521C16.3388 48.514 15.9934 48.6166 15.8161 48.822C15.6481 49.018 15.5641 49.4193 15.5641 50.026ZM13.4921 53.61V49.998C13.4921 48.7473 13.7114 47.898 14.1501 47.45C14.5981 46.9926 15.4614 46.764 16.7401 46.764H17.6921C18.9708 46.764 19.8294 46.9926 20.2681 47.45C20.7161 47.898 20.9401 48.7473 20.9401 49.998V53.61C20.9401 54.8606 20.7161 55.7146 20.2681 56.172C19.8294 56.62 18.9708 56.844 17.6921 56.844H16.7401C15.4614 56.844 14.5981 56.62 14.1501 56.172C13.7114 55.7146 13.4921 54.8606 13.4921 53.61ZM24.2634 54.044V54.324C24.2634 54.6506 24.3334 54.8746 24.4734 54.996C24.6227 55.1173 24.898 55.178 25.2994 55.178H25.8594C26.2607 55.178 26.5314 55.1173 26.6714 54.996C26.8207 54.8746 26.8954 54.6506 26.8954 54.324V53.82C26.8954 53.484 26.8347 53.26 26.7134 53.148C26.5921 53.0266 26.2887 52.9053 25.8034 52.784L24.2354 52.392C23.2927 52.1586 22.686 51.8693 22.4154 51.524C22.154 51.1786 22.0234 50.5486 22.0234 49.634V49.382C22.0234 48.3833 22.2334 47.6973 22.6534 47.324C23.0827 46.9506 23.89 46.764 25.0754 46.764H25.7334C26.9187 46.764 27.7214 46.9506 28.1414 47.324C28.5707 47.6973 28.7854 48.3833 28.7854 49.382V49.564C28.7854 49.9 28.6174 50.068 28.2814 50.068H27.2174C26.8814 50.068 26.7134 49.9 26.7134 49.564V49.284C26.7134 48.9573 26.6387 48.7333 26.4894 48.612C26.3494 48.4906 26.0787 48.43 25.6774 48.43H25.1314C24.73 48.43 24.4547 48.4906 24.3054 48.612C24.1654 48.7333 24.0954 48.9573 24.0954 49.284V49.648C24.0954 49.984 24.156 50.2126 24.2774 50.334C24.3987 50.446 24.702 50.5626 25.1874 50.684L26.7554 51.076C27.698 51.3093 28.3 51.5986 28.5614 51.944C28.8321 52.2893 28.9674 52.9193 28.9674 53.834V54.226C28.9674 55.2246 28.7527 55.9106 28.3234 56.284C27.9034 56.6573 27.1007 56.844 25.9154 56.844H25.2434C24.058 56.844 23.2507 56.6573 22.8214 56.284C22.4014 55.9106 22.1914 55.2246 22.1914 54.226V54.044C22.1914 53.708 22.3594 53.54 22.6954 53.54H23.7594C24.0954 53.54 24.2634 53.708 24.2634 54.044Z" fill="#C4C4C4"/>
<path opacity="0.8" d="M28.3064 20.2886C28.2912 17.7057 29.4615 15.759 31.8248 14.3236C30.503 12.4299 28.5033 11.3884 25.8673 11.1877C23.3715 10.9908 20.6409 12.642 19.641 12.642C18.5844 12.642 16.1681 11.2559 14.2668 11.2559C10.3432 11.3165 6.17334 14.3842 6.17334 20.6257C6.17334 22.4701 6.51041 24.3751 7.18455 26.3369C8.08593 28.9199 11.3354 35.2485 14.7251 35.1462C16.4975 35.1046 17.7511 33.8888 20.0576 33.8888C22.2959 33.8888 23.4548 35.1462 25.4318 35.1462C28.8517 35.097 31.7907 29.3441 32.6466 26.7535C28.0602 24.591 28.3064 20.4212 28.3064 20.2886ZM24.3259 8.73731C26.2461 6.45735 26.0719 4.3819 26.0151 3.6358C24.3183 3.73427 22.3565 4.79093 21.2393 6.08998C20.0084 7.48371 19.285 9.20694 19.4403 11.1498C21.2733 11.29 22.9473 10.3469 24.3259 8.73731Z" fill="#C4C4C4"/>
</g>
</svg>
