<svg width="212" height="151" viewBox="0 0 212 151" fill="none" xmlns="http://www.w3.org/2000/svg">
<path d="M7.37598 123.731V136.381C7.37598 138.539 7.67508 139.983 8.27326 140.713C8.90475 141.411 10.1337 141.759 11.9616 141.759H14.5528C16.3807 141.759 17.5933 141.411 18.1915 140.713C18.823 139.983 19.1384 138.539 19.1384 136.381V123.731C19.1384 121.573 18.823 120.146 18.1915 119.449C17.5933 118.718 16.3807 118.353 14.5528 118.353H11.9616C10.1337 118.353 8.90475 118.718 8.27326 119.449C7.67508 120.146 7.37598 121.573 7.37598 123.731ZM0 136.48V123.632C0 119.183 0.780354 116.162 2.34242 114.568C3.93712 112.941 7.01096 112.128 11.5626 112.128H14.9518C19.5041 112.128 22.561 112.941 24.1223 114.568C25.717 116.162 26.5144 119.183 26.5144 123.632V136.48C26.5144 140.929 25.717 143.967 24.1223 145.594C22.561 147.188 19.5041 147.984 14.9518 147.984H11.5626C7.01096 147.984 3.93712 147.188 2.34242 145.594C0.780354 143.967 0 140.929 0 136.48ZM56.4269 126.371C56.4269 129.293 56.0115 131.534 55.1809 133.094C54.3835 134.621 53.0213 135.684 51.0935 136.281L56.5261 147.536H48.8014L44.0663 136.978H38.9831V147.536H31.6064V112.576H44.8636C49.2827 112.576 52.3069 113.34 53.9349 114.867C55.5962 116.394 56.4269 119.166 56.4269 123.184V126.371ZM38.9831 130.704H44.814C46.4087 130.704 47.5051 130.372 48.1033 129.708C48.7348 129.044 49.0502 127.882 49.0502 126.221V123.333C49.0502 121.673 48.7348 120.511 48.1033 119.847C47.5051 119.183 46.4087 118.851 44.814 118.851H38.9831V130.704ZM68.5264 141.311H74.8563C76.6835 141.311 77.9131 140.962 78.5446 140.265C79.1754 139.535 79.4915 138.091 79.4915 135.933V124.18C79.4915 122.022 79.1754 120.594 78.5446 119.897C77.9131 119.166 76.6835 118.801 74.8563 118.801H68.5264V141.311ZM61.1504 112.576H75.2546C79.8069 112.576 82.8801 113.39 84.4755 115.016C86.0702 116.61 86.8675 119.631 86.8675 124.08V136.032C86.8675 140.481 86.0702 143.519 84.4755 145.146C82.8801 146.739 79.8069 147.536 75.2546 147.536H61.1504V112.576ZM98.5382 123.731V136.381C98.5382 138.539 98.8372 139.983 99.4354 140.713C100.067 141.411 101.296 141.759 103.124 141.759H105.715C107.543 141.759 108.756 141.411 109.354 140.713C109.984 139.983 110.301 138.539 110.301 136.381V123.731C110.301 121.573 109.984 120.146 109.354 119.449C108.756 118.718 107.543 118.353 105.715 118.353H103.124C101.296 118.353 100.067 118.718 99.4354 119.449C98.8372 120.146 98.5382 121.573 98.5382 123.731ZM91.1622 136.48V123.632C91.1622 119.183 91.9425 116.162 93.5046 114.568C95.0993 112.941 98.1724 112.128 102.725 112.128H106.114C110.666 112.128 113.722 112.941 115.285 114.568C116.879 116.162 117.677 119.183 117.677 123.632V136.48C117.677 140.929 116.879 143.967 115.285 145.594C113.722 147.188 110.666 147.984 106.114 147.984H102.725C98.1724 147.984 95.0993 147.188 93.5046 145.594C91.9425 143.967 91.1622 140.929 91.1622 136.48Z" fill="white"/>
<path d="M142.226 133.75V134.887C142.226 137.784 141.603 139.774 140.356 140.857C139.138 141.94 136.807 142.481 133.367 142.481H131.416C127.975 142.481 125.631 141.94 124.384 140.857C123.166 139.774 122.556 137.784 122.556 134.887V132.897H128.57V135.171C128.57 136.119 128.774 136.769 129.18 137.121C129.614 137.473 130.413 137.649 131.578 137.649H133.203C134.369 137.649 135.154 137.473 135.561 137.121C135.995 136.769 136.211 136.119 136.211 135.171V133.709C136.211 132.735 136.035 132.085 135.683 131.76C135.33 131.408 134.45 131.056 133.041 130.704L128.489 129.567C125.753 128.89 123.991 128.051 123.206 127.049C122.447 126.048 122.068 124.22 122.068 121.567V120.836C122.068 117.939 122.677 115.949 123.897 114.867C125.143 113.784 127.487 113.242 130.928 113.242H132.838C136.279 113.242 138.609 113.784 139.828 114.867C141.075 115.949 141.698 117.939 141.698 120.836V122.826H135.683V120.552C135.683 119.604 135.466 118.955 135.033 118.603C134.626 118.251 133.84 118.075 132.675 118.075H131.09C129.925 118.075 129.126 118.251 128.693 118.603C128.286 118.955 128.083 119.604 128.083 120.552V121.608C128.083 122.582 128.259 123.246 128.611 123.598C128.963 123.922 129.844 124.261 131.253 124.613L135.805 125.75C138.542 126.427 140.289 127.266 141.048 128.268C141.834 129.269 142.226 131.097 142.226 133.75ZM151.536 122.704V133.019C151.536 134.779 151.78 135.956 152.268 136.552C152.782 137.121 153.785 137.405 155.275 137.405H157.388C158.879 137.405 159.868 137.121 160.355 136.552C160.87 135.956 161.128 134.779 161.128 133.019V122.704C161.128 120.944 160.87 119.78 160.355 119.212C159.868 118.616 158.879 118.318 157.388 118.318H155.275C153.785 118.318 152.782 118.616 152.268 119.212C151.78 119.78 151.536 120.944 151.536 122.704ZM145.521 133.1V122.623C145.521 118.995 146.158 116.532 147.431 115.232C148.732 113.905 151.238 113.242 154.95 113.242H157.714C161.425 113.242 163.918 113.905 165.192 115.232C166.492 116.532 167.143 118.995 167.143 122.623V133.1C167.143 136.728 166.492 139.205 165.192 140.532C163.918 141.831 161.425 142.481 157.714 142.481H154.95C151.238 142.481 148.732 141.831 147.431 140.532C146.158 139.205 145.521 136.728 145.521 133.1ZM177.31 142.116H171.295V113.608H189.299V118.724H177.31V126.156H187.592V131.273H177.31V142.116ZM190.663 118.724V113.608H211.227V118.724H203.953V142.116H197.938V118.724H190.663Z" fill="#F2F2F2"/>
<path d="M123.434 147H209.742" stroke="#AD0000" stroke-width="3" stroke-miterlimit="10" stroke-linecap="round"/>
<g filter="url(#filter0_d)">
<path d="M100.038 56.3879V37.6958C100.038 35.1623 100.072 32.622 100.038 30.0818C99.9838 27.0049 98.9234 25.8774 95.8305 25.728C93.6689 25.6193 91.4869 25.6261 89.3253 25.728C86.3887 25.8367 85.138 26.9642 85.104 29.9256C85.0088 38.3343 85.0088 46.743 85.104 55.1517C85.104 58.181 86.2052 59.261 89.0941 59.3968C92.187 59.5395 95.2867 59.3968 98.4407 59.3968L88.4824 76.6014L88.1765 76.452C89.2845 73.8098 90.3993 71.1609 91.616 68.3014C90.7935 68.3014 90.1342 68.3014 89.4884 68.1995C87.0549 67.9006 84.499 67.9006 82.1879 67.1399C77.885 65.7679 75.5671 62.4669 75.2136 58.0248C74.8805 53.5012 74.9621 48.9437 74.9485 44.3997C74.9485 38.9659 74.799 33.5322 75.1252 28.0985C75.5195 21.6255 79.0338 17.7879 85.539 17.231C90.5918 16.7899 95.6758 16.8445 100.718 17.394C106.156 17.9713 109.779 22.2708 110.071 27.7656C110.255 31.2976 110.241 34.8499 110.126 38.3886C110.126 39.3531 109.446 40.338 108.909 41.2345C106.244 45.9143 103.539 50.567 100.84 55.2264C100.718 55.4981 100.494 55.7426 100.038 56.3879Z" fill="white"/>
<path d="M102.417 55.1584L109.643 42.688L109.969 42.7831C109.969 43.5981 110.017 44.42 109.969 45.2283C109.82 47.2659 110.805 48.6787 112.688 49.1609C114.925 49.7315 117.256 49.9081 119.52 50.3903C122.096 50.9201 124.666 51.5382 127.228 52.2785C129.148 52.7657 130.876 53.8228 132.183 55.3106C133.489 56.7983 134.315 58.6469 134.549 60.6125C135.079 64.2146 135.096 67.8735 134.597 71.48C133.917 76.5198 130.171 79.8955 124.475 80.4185C119.508 80.8723 114.506 80.7948 109.555 80.1876C103.743 79.5084 100.154 74.9848 99.909 69.1299C99.6846 63.6962 99.5895 64.3754 104.423 64.3279C105.694 64.3279 106.965 64.3279 108.229 64.3279C109.391 64.3279 110.051 64.8712 109.996 66.0599C109.731 71.5412 112.342 71.9283 116.277 71.9079C117.916 71.9079 119.561 71.9079 121.185 71.7178C123.374 71.48 124.224 70.6038 124.672 68.4643C124.672 68.41 124.672 68.3624 124.672 68.3081C125.692 63.3362 123.734 60.8978 118.663 60.2186C114.85 59.6906 111.076 58.9124 107.366 57.8889C105.687 57.4134 104.171 56.1433 102.417 55.1584Z" fill="#B20000"/>
<path d="M119.01 29.4161C120.064 29.4161 120.832 29.4161 121.6 29.4161C129.41 29.518 134.087 34.0891 134.386 41.8934C134.522 45.5 134.386 45.6698 130.797 45.663H126.202C124.937 45.663 124.163 45.14 124.251 43.7612C124.251 43.5506 124.251 43.3401 124.251 43.1295C124.095 39.5908 123.143 38.538 119.642 38.2188C118.433 38.1157 117.218 38.0908 116.006 38.1441C114.802 38.178 113.599 38.3343 112.097 38.4633L121.79 21.6255L122.171 21.7885L119.01 29.4161Z" fill="#B20000"/>
<path d="M90.5216 4.46162C92.7161 3.70878 94.9631 3.11853 97.2444 2.69566C99.5421 2.29573 101.867 2.06868 104.198 2.01644C106.537 1.95541 108.877 2.06437 111.2 2.34246C113.532 2.63896 115.842 3.09281 118.113 3.7009C127.296 6.26223 135.51 11.4915 141.714 18.7252C147.964 26.0372 151.788 35.1081 152.658 44.6849C153.537 54.2924 151.467 63.9396 146.724 72.3427C141.868 80.6692 134.644 87.3649 125.971 91.5781C117.354 95.8185 107.661 97.3752 98.1485 96.0474C93.4518 95.3783 88.8742 94.045 84.5534 92.0875C75.9009 88.199 68.6554 81.7444 63.8006 73.5992C63.182 72.6075 62.679 71.5615 62.1148 70.5359C61.5506 69.5103 61.1496 68.4168 60.667 67.364C60.1843 66.3112 59.8852 65.1837 59.4978 64.0834C59.1103 62.983 58.886 61.8419 58.5733 60.7348C58.5691 60.7219 58.5676 60.7083 58.5687 60.6947C58.5699 60.6812 58.5738 60.668 58.5801 60.656C58.5864 60.644 58.5951 60.6333 58.6056 60.6247C58.6161 60.6161 58.6283 60.6096 58.6413 60.6058C58.6674 60.5996 58.6949 60.6041 58.7178 60.618C58.7407 60.632 58.7572 60.6545 58.7636 60.6805C60.6266 67.3516 63.9561 73.5231 68.5095 78.745C73.0628 83.9668 78.7252 88.1073 85.0836 90.8649C89.3091 92.6954 93.775 93.9126 98.3456 94.4784C107.536 95.614 116.858 94.0294 125.155 89.9208C133.453 85.8244 140.345 79.3563 144.956 71.3374C149.568 63.3049 151.612 54.0557 150.816 44.8295C150.019 35.6033 146.418 26.8409 140.497 19.7168C134.582 12.5909 126.686 7.37672 117.807 4.73331C108.927 2.07026 99.4636 2.0443 90.5692 4.65859C90.5558 4.66339 90.5414 4.66531 90.5271 4.66421C90.5129 4.66312 90.4991 4.65904 90.4865 4.65224C90.4739 4.64545 90.4629 4.63609 90.4542 4.62477C90.4454 4.61345 90.4393 4.60042 90.4359 4.58654C90.4325 4.57265 90.4321 4.55821 90.4347 4.54416C90.4373 4.53011 90.4428 4.51677 90.4509 4.50499C90.459 4.49321 90.4695 4.48326 90.4817 4.47579C90.4938 4.46832 90.5074 4.46349 90.5216 4.46162Z" fill="white"/>
</g>
<defs>
<filter id="filter0_d" x="56.5684" y="0" width="102.287" height="102.508" filterUnits="userSpaceOnUse" color-interpolation-filters="sRGB">
<feFlood flood-opacity="0" result="BackgroundImageFix"/>
<feColorMatrix in="SourceAlpha" type="matrix" values="0 0 0 0 0 0 0 0 0 0 0 0 0 0 0 0 0 0 127 0"/>
<feOffset dx="2" dy="2"/>
<feGaussianBlur stdDeviation="2"/>
<feColorMatrix type="matrix" values="0 0 0 0 0 0 0 0 0 0 0 0 0 0 0 0 0 0 0.25 0"/>
<feBlend mode="normal" in2="BackgroundImageFix" result="effect1_dropShadow"/>
<feBlend mode="normal" in="SourceGraphic" in2="effect1_dropShadow" result="shape"/>
</filter>
</defs>
</svg>
