<svg width="100" height="100" viewBox="0 0 100 100" fill="none" xmlns="http://www.w3.org/2000/svg">
<rect width="100" height="100" rx="20" fill="#9BA50E"/>
<rect x="1" y="1" width="98" height="98" rx="19" stroke="#4D4949" stroke-opacity="0.2" stroke-width="2"/>
<path d="M91.4328 52.6544H62.9966C62.9966 52.6544 62.9966 52.6544 62.9966 52.6403H62.7991C61.3744 52.6403 60.2319 51.4857 60.2319 50.0776V49.627C60.2319 48.2048 61.3886 47.0643 62.7991 47.0643H79.8101C81.1501 46.9798 82.2221 45.8815 82.2221 44.5156V44.065C82.2221 42.6429 81.0654 41.5023 79.6549 41.5023H61.5578V41.4882H54.4911C53.0664 41.4882 51.9239 40.3336 51.9239 38.9255V38.4749C51.9239 37.0527 53.0805 35.9122 54.4911 35.9122H65.6342C67.0025 35.8559 68.1027 34.7435 68.1027 33.3495V32.8989C68.1027 31.4767 66.946 30.3361 65.5355 30.3361H54.209C49.3003 25.788 42.7555 23 35.5476 23C20.328 23 8 35.3208 8 50.5C8 65.6933 20.328 78 35.5476 78C43.4466 78 50.5416 74.6769 55.549 69.3684H75.7054C77.1301 69.3684 78.2726 68.2138 78.2726 66.8057V66.3551C78.2726 65.0033 77.2147 63.905 75.8888 63.8065H57.7494C56.3247 63.8065 55.1822 62.6518 55.1822 61.2437V60.7931C55.1822 59.371 56.3389 58.2304 57.7494 58.2304H89.0772C89.1901 58.2304 89.2888 58.2445 89.3876 58.2586H91.4328C92.8575 58.2586 94 57.1039 94 55.6959V55.2453C94 53.809 92.8575 52.6544 91.4328 52.6544ZM44.6738 55.0341L20.7653 67.5661L32.7125 53.3584L25.3918 46.1912L49.3003 33.6592L37.3531 47.8669L44.6738 55.0341Z" fill="white"/>
</svg>
