<svg width="100" height="100" viewBox="0 0 100 100" fill="none" xmlns="http://www.w3.org/2000/svg">
<rect width="100" height="100" rx="20" fill="white"/>
<rect x="1" y="1" width="98" height="98" rx="19" stroke="#4D4949" stroke-opacity="0.2" stroke-width="2"/>
<path d="M10 53.6444C11.7438 53.6444 13.4877 53.6444 15.2795 53.6444C15.2795 47.7522 15.2795 41.8761 15.2795 36C16.0554 36 16.8233 36 17.5992 36C17.6152 36.2023 17.6392 36.4047 17.6392 36.5989C17.6392 42.8797 17.6392 49.1686 17.6472 55.4493C17.6472 55.595 17.6472 55.7407 17.6472 55.9026C17.5432 55.9188 17.4713 55.9431 17.3993 55.9431C15.0395 55.9431 12.6797 55.9431 10.32 55.9431C10.216 55.9431 10.112 55.9188 10.008 55.9026C10 55.158 10 54.3972 10 53.6444Z" fill="black"/>
<path d="M51.2681 58.5412C51.4281 58.5331 51.5401 58.5169 51.6601 58.5169C53.036 58.5169 54.4038 58.5169 55.7797 58.5088C55.9957 58.5088 56.1476 58.5493 56.2516 58.7759C57.2035 60.7831 59.0834 61.374 61.0672 61.1312C62.859 60.9126 64.1868 59.9981 64.8508 58.2579C65.0348 57.7804 65.1147 57.2381 65.1387 56.7201C65.1787 55.7245 65.1547 54.7209 65.1467 53.7254C65.1467 53.6525 65.1227 53.5797 65.0987 53.4178C64.9228 53.7011 64.8108 53.9196 64.6668 54.122C63.7389 55.4413 62.395 56.0969 60.8912 56.4287C57.6275 57.1571 54.1159 55.7164 52.268 52.8998C51.1481 51.192 50.8922 49.2981 51.1001 47.2908C51.4681 43.7053 54.6838 40.8886 57.5395 40.2573C59.9633 39.7231 62.203 40.1035 64.1308 41.7709C64.5548 42.1351 64.8588 42.6531 65.2427 43.1306C65.2827 42.7259 65.3227 42.3212 65.3547 41.9166C65.3867 41.5281 65.3947 41.1396 65.4427 40.7511C65.4587 40.6539 65.5787 40.4921 65.6507 40.4921C66.9146 40.484 68.1784 40.5001 69.4423 40.5163C69.4503 40.5163 69.4663 40.5325 69.4903 40.5487C69.4983 40.6458 69.5143 40.7511 69.5143 40.8563C69.5143 46.1172 69.5383 51.3782 69.4903 56.631C69.4503 60.7993 66.6586 64.0611 62.587 64.7734C60.0993 65.2104 57.6755 65.0243 55.3957 63.8345C53.3719 62.7742 52.0601 61.115 51.3561 58.9459C51.3241 58.8325 51.3081 58.703 51.2681 58.5412ZM60.4912 43.9805C58.0675 43.9562 56.0197 45.9311 55.9877 48.3349C55.9557 50.8602 57.9795 52.8998 60.5312 52.9241C62.891 52.9403 64.9388 50.9411 64.9628 48.5858C64.9948 45.9634 63.091 44.0047 60.4912 43.9805Z" fill="#E51C22"/>
<path d="M80.6729 57.6184C77.0252 57.5294 74.2095 55.9349 72.4177 52.7136C70.5939 49.4356 71.3298 45.3564 74.0815 42.6935C77.1292 39.7393 82.0087 39.1565 85.6164 41.3661C87.7282 42.653 89.272 44.4418 89.776 46.9427C90.5039 50.5364 89.32 53.4663 86.4803 55.7002C84.7845 57.0438 82.8327 57.6346 80.6729 57.6184ZM85.4164 49.8322C85.4164 48.9257 85.4164 48.0921 85.4164 47.2584C85.3364 47.2422 85.2884 47.2179 85.2404 47.2179C84.3765 47.2179 83.5046 47.2017 82.6407 47.2179C82.3047 47.226 82.2087 47.1046 82.2167 46.7809C82.2327 45.9553 82.2167 45.1378 82.2247 44.3123C82.2247 44.0371 82.1367 43.9238 81.8488 43.9319C81.2328 43.948 80.6249 43.9399 80.0089 43.9319C79.745 43.9238 79.625 43.9966 79.625 44.2961C79.641 45.1459 79.617 45.9958 79.633 46.8456C79.641 47.1289 79.545 47.226 79.265 47.2179C78.4411 47.2017 77.6092 47.226 76.7853 47.2098C76.4973 47.2017 76.3773 47.2908 76.3853 47.5983C76.4013 48.2216 76.4013 48.8367 76.3853 49.4599C76.3773 49.7432 76.4813 49.8403 76.7533 49.8322C77.5292 49.816 78.2971 49.8241 79.073 49.8322C79.625 49.8322 79.625 49.8322 79.625 50.3745C79.625 51.1596 79.633 51.9366 79.617 52.7217C79.609 52.9969 79.705 53.1021 79.9849 53.094C80.6009 53.0778 81.2088 53.0778 81.8248 53.094C82.1207 53.1021 82.2247 53.005 82.2167 52.6974C82.2007 51.9285 82.2087 51.1596 82.2087 50.3907C82.2087 49.8241 82.2087 49.8241 82.7767 49.8241C83.6566 49.8322 84.5205 49.8322 85.4164 49.8322Z" fill="#E51C22"/>
<path d="M37.3175 48.1326C37.2775 52.8432 33.8538 56.3073 29.2543 56.2668C24.7988 56.2264 21.2231 52.6732 21.3831 47.8088C21.5191 43.2277 25.1187 39.8041 29.6623 39.966C34.0538 40.1278 37.3655 43.6972 37.3175 48.1326ZM29.3343 53.9844C32.526 53.9844 34.9417 51.4996 34.9417 48.2135C34.9417 44.7898 32.55 42.2322 29.3423 42.2403C26.1906 42.2484 23.7589 44.7656 23.7589 48.0193C23.7589 51.4834 26.0946 53.9844 29.3343 53.9844Z" fill="black"/>
<path d="M40.8213 40.3059C43.525 40.3059 46.2048 40.3059 48.8925 40.3059C48.8925 41.0586 48.8925 41.7871 48.8925 42.556C46.9807 42.556 45.0929 42.556 43.1571 42.556C43.1571 47.0237 43.1571 51.4672 43.1571 55.935C42.3571 55.935 41.6052 55.935 40.8213 55.935C40.8213 50.7307 40.8213 45.5345 40.8213 40.3059Z" fill="black"/>
</svg>
