<svg width="56" height="56" viewBox="0 0 56 56" fill="none" xmlns="http://www.w3.org/2000/svg">
<path opacity="0.7" d="M54.0257 32.6778C54.3127 31.0986 54.4668 29.4844 54.4668 27.8702C54.4668 24.2908 53.7667 20.8166 52.3875 17.5531C51.0573 14.3948 49.1461 11.5593 46.7168 9.12395C44.3078 6.70275 41.4521 4.77432 38.3088 3.44605C35.0464 2.06342 31.5879 1.36157 28.0175 1.36157C26.3373 1.36157 24.6501 1.523 23.0119 1.83883C20.7451 0.634628 18.2193 0.00341231 15.654 0C11.4745 0 7.53998 1.63529 4.58561 4.59707C3.12777 6.05106 1.97189 7.78034 1.1848 9.68493C0.397716 11.5895 -0.00496341 13.6316 4.61728e-05 15.6932C4.61728e-05 18.3602 0.686131 20.9851 1.96729 23.3012C1.70826 24.8031 1.56824 26.3401 1.56824 27.8702C1.56824 31.4496 2.26833 34.9237 3.6475 38.1872C4.97766 41.3455 6.88189 44.181 9.31119 46.6164C11.7405 49.0518 14.5688 50.9608 17.7192 52.2943C20.9816 53.6769 24.4401 54.3787 28.0105 54.3787C29.5647 54.3787 31.1189 54.2384 32.6451 53.9647C34.9904 55.2911 37.6367 56 40.346 56C44.5255 56 48.46 54.3717 51.4144 51.4029C54.3758 48.4412 56 44.4968 56 40.3068C56.007 37.6398 55.3209 35.0079 54.0257 32.6778ZM47.8579 47.8376C45.8487 49.8589 43.1954 50.9538 40.353 50.9538C38.5258 50.9538 36.7266 50.4765 35.1304 49.5711L33.5552 48.6798L31.77 48.9956C30.5238 49.2202 29.2637 49.3325 28.0175 49.3325C25.1191 49.3325 22.3258 48.764 19.6795 47.6411C17.1382 46.5672 14.8489 45.0232 12.8746 43.044C10.9203 41.0915 9.36295 38.777 8.28907 36.2291C7.16893 33.5832 6.60886 30.7828 6.60886 27.8772C6.60886 26.656 6.72087 25.4067 6.9309 24.1714L7.23894 22.4098L6.37083 20.8447C5.49525 19.2695 5.03501 17.4964 5.03367 15.6932C5.03367 12.8437 6.1328 10.1837 8.14205 8.16944C10.1583 6.15516 12.8116 5.05326 15.654 5.05326C17.3973 5.05799 19.1132 5.48923 20.6526 6.30956L22.2208 7.13774L23.957 6.80085C25.2802 6.54819 26.6453 6.41484 28.0175 6.41484C30.9159 6.41484 33.7092 6.98333 36.3485 8.09926C38.9038 9.1801 41.1861 10.7242 43.1534 12.6963C45.1276 14.6685 46.6678 16.9635 47.7459 19.5182C48.8661 22.1642 49.4261 24.9645 49.4261 27.8702C49.4261 29.1615 49.3071 30.467 49.0691 31.7654L48.7401 33.5551L49.6222 35.1412C50.5043 36.7204 50.9663 38.5101 50.9663 40.3138C50.9663 43.1703 49.8672 45.8233 47.8579 47.8376V47.8376ZM33.0021 24.7891L26.8134 23.4135C24.4611 22.873 21.7517 22.1642 21.7517 19.9393C21.7517 17.7145 23.649 16.1564 27.0794 16.1564C33.9892 16.1564 33.3592 20.9149 36.7896 20.9149C38.5958 20.9149 40.178 19.8481 40.178 18.0233C40.178 13.7561 33.3592 10.5487 27.5764 10.5487C21.2967 10.5487 14.6108 13.2227 14.6108 20.3394C14.6108 23.7644 15.829 27.414 22.5638 29.1054L30.9229 31.1969C33.4502 31.8215 34.0872 33.2463 34.0872 34.5377C34.0872 36.6783 31.966 38.7698 28.1225 38.7698C20.6176 38.7698 21.6607 32.9796 17.6422 32.9796C15.836 32.9796 14.5268 34.2288 14.5268 36.0045C14.5268 39.4716 18.7274 44.1038 28.1225 44.1038C37.0626 44.1038 41.4942 39.7874 41.4942 33.9972C41.4942 30.2705 39.779 26.3051 33.0021 24.7891Z" fill="#4D4949"/>
</svg>
