<svg width="34" height="54" viewBox="0 0 34 54" fill="none" xmlns="http://www.w3.org/2000/svg">
<g opacity="0.7">
<path opacity="0.8" d="M9.49453 43.172H10.2785C10.6239 43.172 10.8385 43.3493 10.9225 43.704L12.3925 49.64L13.7505 43.564C13.8065 43.3027 13.9885 43.172 14.2965 43.172H15.4585C15.7199 43.172 15.8505 43.2887 15.8505 43.522C15.8505 43.5967 15.8319 43.6993 15.7945 43.83L13.7365 52.496C13.6619 52.832 13.4192 53 13.0085 53H11.9445C11.5525 53 11.3099 52.832 11.2165 52.496L9.88653 47.148L8.55653 52.496C8.4632 52.832 8.22053 53 7.82853 53H6.76453C6.35386 53 6.1112 52.832 6.03653 52.496L3.97853 43.83C3.9412 43.6993 3.92253 43.5967 3.92253 43.522C3.92253 43.2887 4.0532 43.172 4.31453 43.172H5.47653C5.78453 43.172 5.96653 43.3027 6.02253 43.564L7.38053 49.64L8.85053 43.704C8.93453 43.3493 9.1492 43.172 9.49453 43.172ZM18.0154 47.736V48.324H20.4374V47.736C20.4374 47.2973 20.3721 46.994 20.2414 46.826C20.1108 46.658 19.8541 46.574 19.4714 46.574H18.9814C18.5988 46.574 18.3421 46.658 18.2114 46.826C18.0808 46.994 18.0154 47.2973 18.0154 47.736ZM21.9214 49.612H18.0154V50.508C18.0154 50.9467 18.0808 51.25 18.2114 51.418C18.3421 51.586 18.5988 51.67 18.9814 51.67H19.4714C19.7888 51.67 20.0128 51.6187 20.1434 51.516C20.2834 51.404 20.3721 51.2127 20.4094 50.942C20.4468 50.606 20.6241 50.438 20.9414 50.438H21.9074C22.2434 50.438 22.4114 50.606 22.4114 50.942C22.4114 51.166 22.3694 51.4133 22.2854 51.684C22.1361 52.188 21.8514 52.552 21.4314 52.776C21.0114 52.9907 20.4001 53.098 19.5974 53.098H18.8554C17.8008 53.098 17.0634 52.8927 16.6434 52.482C16.2328 52.0713 16.0274 51.3713 16.0274 50.382V47.862C16.0274 46.8727 16.2328 46.1727 16.6434 45.762C17.0634 45.3513 17.8008 45.146 18.8554 45.146H19.5974C20.6521 45.146 21.3848 45.3513 21.7954 45.762C22.2154 46.1727 22.4254 46.8727 22.4254 47.862V49.108C22.4254 49.444 22.2574 49.612 21.9214 49.612ZM23.4126 52.496V43.256C23.4126 42.92 23.5806 42.752 23.9166 42.752H24.8966C25.2326 42.752 25.4006 42.92 25.4006 43.256V45.832C25.6153 45.3747 26.0773 45.146 26.7866 45.146H27.4026C28.2893 45.146 28.9099 45.3467 29.2646 45.748C29.6286 46.1493 29.8106 46.84 29.8106 47.82V50.424C29.8106 51.404 29.6286 52.0947 29.2646 52.496C28.9099 52.8973 28.2893 53.098 27.4026 53.098H26.7306C26.0213 53.098 25.5593 52.8693 25.3446 52.412L25.2606 52.65C25.1766 52.8833 24.9946 53 24.7146 53H23.9166C23.5806 53 23.4126 52.832 23.4126 52.496ZM27.8226 50.34V47.904C27.8226 47.4653 27.7573 47.162 27.6266 46.994C27.4959 46.826 27.2393 46.742 26.8566 46.742H26.3666C25.9839 46.742 25.7273 46.826 25.5966 46.994C25.4659 47.162 25.4006 47.4653 25.4006 47.904V50.34C25.4006 50.7787 25.4659 51.082 25.5966 51.25C25.7273 51.418 25.9839 51.502 26.3666 51.502H26.8566C27.2393 51.502 27.4959 51.418 27.6266 51.25C27.7573 51.082 27.8226 50.7787 27.8226 50.34Z" fill="#C4C4C4"/>
<g opacity="0.8" clip-path="url(#clip0)">
<path d="M1 14.9957V14.9519C1.38912 9.8656 3.20502 6.05088 6.36123 3.63929C9.4742 1.18384 12.8466 -3.7628e-05 16.5216 -3.7628e-05C20.3696 -0.0438849 23.9582 1.27153 27.1576 3.90237C30.4003 6.48936 32 10.3479 32 15.3465V15.6534C32 20.6959 30.4003 24.4667 27.1576 27.0537C23.9149 29.6846 20.3264 31 16.4784 31H16.3054C12.5439 30.9561 9.08508 29.6407 5.88563 27.0099C2.68619 24.4229 1.04324 20.4328 1 14.9957ZM15.5704 8.11171V1.18384H14.5328C14.3166 1.44692 14.1437 1.75385 13.9707 2.01694C13.7978 2.28002 13.6248 2.5431 13.4519 2.85003C13.2789 3.11312 13.0628 3.4639 12.9331 3.72698C12.7601 3.99006 12.6304 4.25315 12.5007 4.56008C12.2413 4.99855 12.0251 5.43702 11.8522 5.83165C11.636 6.22627 11.463 6.6209 11.3333 6.97168C11.5927 7.14707 11.8954 7.3663 12.2413 7.49784C12.6304 7.62939 13.0195 7.76093 13.4086 7.84862C13.841 7.93632 14.2301 7.98016 14.576 8.02401C14.9651 8.06786 15.311 8.11171 15.5704 8.11171ZM17.3863 1.18384V8.06786C17.6025 8.06786 17.8619 8.11171 18.1213 8.06786C18.3808 8.06786 18.6834 8.02401 18.9428 7.98016C19.4184 7.89247 19.9805 7.76093 20.4128 7.62939C20.8884 7.454 21.3208 7.23476 21.6234 6.97168C21.1046 5.70011 20.5425 4.69162 19.9805 3.72698C19.4184 2.76234 18.7699 1.92924 18.0781 1.22769V1.18384H17.3863ZM12.7169 1.57846V1.53462C12.4142 1.66616 12.1116 1.88539 11.7657 2.01694C11.463 2.14848 11.0739 2.32387 10.7713 2.49926C10.166 2.80619 9.56067 3.15697 8.95537 3.55159C8.39331 3.94622 7.83124 4.38469 7.35565 4.82316C7.52859 4.99855 7.74477 5.17394 7.91771 5.30548C8.09066 5.43702 8.30683 5.61241 8.52301 5.7878C8.69596 5.8755 8.91213 6.00704 9.12831 6.18243C9.34449 6.31397 9.6039 6.48936 9.86332 6.66475C10.2092 5.8755 10.5551 5.0424 10.9874 4.29699C11.4198 3.50774 11.8954 2.76234 12.371 2.10463C12.4142 2.01694 12.4575 1.92924 12.5439 1.84155C12.5872 1.7977 12.6304 1.66616 12.7169 1.57846ZM25.947 4.82316V4.77931C24.8661 3.94622 23.9149 3.24466 22.9637 2.80619C22.0126 2.36771 21.0614 1.92924 20.1967 1.57846C20.8884 2.28002 21.4937 3.15697 21.8828 3.99006C22.3152 4.86701 22.7476 5.7878 23.0934 6.66475C23.2664 6.57705 23.4826 6.48936 23.742 6.31397C23.9582 6.18243 24.2608 6.05088 24.5202 5.91934C24.7796 5.74395 24.9958 5.56856 25.2552 5.39318C25.5146 5.17394 25.7741 4.99855 25.947 4.82316ZM25.212 14.6011H30.1841C30.1841 12.9788 29.8382 11.4441 29.1897 9.8656C28.5844 8.33094 27.7197 7.05937 26.6388 5.96319V5.91934C26.4226 6.27012 26.1199 6.57705 25.8173 6.79629C25.4714 7.01552 25.1688 7.19091 24.8229 7.3663C24.6067 7.49784 24.3905 7.67323 24.1743 7.76093C23.9582 7.89247 23.6555 7.98016 23.4393 8.11171C23.6123 8.46248 23.7852 8.85711 23.9582 9.20789C24.0879 9.60251 24.304 10.041 24.3905 10.4356C24.6499 11.1372 24.8229 11.8826 24.9958 12.628C25.1255 13.2857 25.212 13.9872 25.212 14.6011ZM9.56067 8.11171V8.06786C9.21478 7.89247 8.82566 7.76093 8.52301 7.58554C8.22036 7.3663 7.91771 7.14707 7.6583 6.97168C7.39888 6.84014 7.13947 6.66475 6.92329 6.48936C6.70711 6.31397 6.53417 6.13858 6.36123 5.96319C5.2371 7.05937 4.41562 8.28709 3.89679 9.73405C3.33473 11.181 2.94561 12.8034 2.77266 14.5573H8.09066C8.09066 13.3295 8.2636 12.1457 8.56625 10.9618C8.82566 9.73405 9.21478 8.81326 9.56067 8.11171ZM15.5704 14.5573V9.51482C15.2245 9.55867 14.7922 9.55867 14.4031 9.51482C13.9707 9.47097 13.5384 9.33943 13.1492 9.20789C12.8033 9.12019 12.371 9.0325 12.0251 8.90096C11.636 8.81326 11.2469 8.63787 10.9442 8.46248C10.6848 8.90096 10.4686 9.42712 10.2957 9.99714C10.0795 10.5233 9.94979 11.0933 9.82008 11.6195C9.73361 12.1457 9.69038 12.7157 9.64714 13.198C9.6039 13.6803 9.56067 14.1626 9.56067 14.5573H15.5704ZM17.3863 9.60251V14.5573H23.7852C23.7852 14.2942 23.7852 13.9872 23.742 13.6365C23.6555 13.3295 23.6123 12.9349 23.569 12.5841C23.4393 12.058 23.3096 11.4879 23.1367 10.9618C22.9637 10.4795 22.7908 9.99714 22.5746 9.60251C22.4881 9.38328 22.4017 9.12019 22.3152 8.9448C22.1855 8.72557 22.0558 8.59403 21.9693 8.46248C21.4937 8.81326 20.8452 9.0325 20.0669 9.20789C19.3319 9.38328 18.4672 9.55867 17.689 9.60251H17.3863ZM8.09066 16.0042H2.77266C2.77266 16.7496 2.90237 17.5827 3.11855 18.5912C3.33473 19.6435 3.76709 20.6082 4.24268 21.6605C4.45886 22.1867 4.71827 22.7128 4.97768 23.239C5.28033 23.7213 5.62622 24.2475 5.97211 24.7298C6.23152 24.5544 6.49093 24.4229 6.70711 24.2913C6.96653 24.1598 7.26918 23.9844 7.52859 23.8529C7.83124 23.7213 8.13389 23.5898 8.47978 23.4144C8.78243 23.2829 9.17155 23.1075 9.56067 22.9321C9.21478 21.8359 8.82566 20.7836 8.56625 19.5997C8.2636 18.4597 8.09066 17.3196 8.09066 16.0481V16.0042ZM15.5704 21.1343V16.0042H9.56067C9.56067 16.355 9.6039 16.8812 9.69038 17.4073C9.73361 17.9335 9.86332 18.5035 9.94979 19.0735C10.1227 19.6874 10.2524 20.3012 10.4254 20.8274C10.5983 21.3536 10.7713 21.792 10.9442 22.1867C11.7225 21.8797 12.5007 21.6605 13.0195 21.529C13.5816 21.3536 14.1004 21.222 14.6192 21.1782H15.0948C15.2678 21.1343 15.4407 21.1343 15.5704 21.1343ZM17.3863 16.0042V21.0905C17.689 21.1343 18.0349 21.1782 18.3808 21.222C18.7699 21.2659 19.2455 21.3536 19.6346 21.4413L20.2831 21.5728C20.4993 21.6605 20.7587 21.7044 20.9749 21.7482C21.2343 21.8359 21.4937 21.8797 21.7531 21.9674C21.9693 22.0551 22.1855 22.099 22.3584 22.1867C22.9205 20.7397 23.2664 19.5558 23.4826 18.5474C23.6987 17.5827 23.7852 16.7496 23.7852 16.0481V16.0042H17.3863ZM30.1841 16.0481V16.0042H25.212V16.2673C25.1688 17.1004 25.0391 18.065 24.8661 19.0735C24.6932 20.0382 24.304 21.1782 23.7852 22.5813C24.477 22.9321 25.1255 23.2829 25.6444 23.6336C26.1632 23.9844 26.6388 24.379 26.9847 24.7298C27.7197 23.9844 28.3682 22.9759 28.9303 21.6605C29.4923 20.3889 29.8815 19.0735 30.0976 17.6704C30.1409 17.4073 30.1409 17.1442 30.1841 16.8812V16.0481ZM15.5704 29.3776V22.5375C14.4895 22.7128 13.5816 22.9321 12.8898 23.1075C12.198 23.2829 11.6792 23.4582 11.3333 23.6336C11.5927 24.2913 11.8522 24.8614 12.1116 25.3875C12.371 25.8698 12.6736 26.396 12.9331 26.8345C13.0195 27.0099 13.1925 27.1853 13.3222 27.4045C13.4519 27.5799 13.5384 27.7991 13.6681 27.9745C13.7978 28.1937 13.9275 28.4568 14.0572 28.7199C14.2301 28.9392 14.3598 29.2022 14.5328 29.3776H15.5704ZM17.3863 29.3776H18.3808C18.7699 29.0707 19.159 28.6322 19.4616 28.1499C19.8075 27.6676 20.1967 27.0976 20.4561 26.6152C20.7587 26.0452 21.0614 25.5191 21.3208 24.9929C21.5802 24.4667 21.7964 23.9844 21.9693 23.6336C21.4937 23.4582 20.8452 23.2829 20.1967 23.1075C19.5481 22.9321 18.6402 22.7567 17.3863 22.5813V29.3776ZM25.947 25.7822V25.7383C25.8605 25.6068 25.6876 25.4314 25.5579 25.2998C25.4282 25.1683 25.212 24.9929 24.9958 24.8614C24.8229 24.7298 24.6067 24.5983 24.3473 24.4667C24.0879 24.3352 23.742 24.1598 23.4393 23.9844C23.2664 24.3352 22.9637 24.9491 22.5314 25.7822C22.1423 26.6152 21.4505 27.6237 20.5858 28.7199C21.6667 28.5445 22.6179 28.1499 23.4826 27.6237C24.4338 27.1414 25.2552 26.4837 25.947 25.7822ZM9.86332 24.379V24.3352C9.56067 24.5106 9.08508 24.7298 8.60948 24.9491C8.09066 25.1683 7.52859 25.4314 7.00976 25.7822C7.31241 26.0452 7.61506 26.3083 7.87448 26.4837C8.13389 26.7029 8.43654 26.8783 8.69596 27.0537C9.17155 27.3607 9.73361 27.6676 10.2957 27.9307C10.8577 28.1937 11.5495 28.4568 12.4142 28.7199C12.1116 28.3691 11.8954 27.9307 11.6792 27.5799C11.463 27.2291 11.2036 26.8783 10.9874 26.5276C10.7713 26.1768 10.5983 25.7822 10.4254 25.4314C10.2092 25.0806 10.0363 24.7298 9.86332 24.379Z" fill="#C4C4C4"/>
</g>
</g>
<defs>
<clipPath id="clip0">
<rect width="31" height="31" fill="white" transform="translate(1)"/>
</clipPath>
</defs>
</svg>
