<svg width="56" height="55" viewBox="0 0 56 55" fill="none" xmlns="http://www.w3.org/2000/svg">
<g opacity="0.8" clip-path="url(#clip0)">
<path d="M0 26.606V26.5282C0.702929 17.5042 3.98326 10.7362 9.6848 6.45752C15.3082 2.10109 21.4003 0.000661724 28.0391 0.000661724C34.9902 -0.0771318 41.4728 2.25667 47.2524 6.92428C53.1102 11.5141 56 18.3599 56 27.2284V27.7729C56 36.7192 53.1102 43.4094 47.2524 47.9993C41.3947 52.6669 34.9121 55.0007 27.9609 55.0007H27.6485C20.8536 54.9229 14.6053 52.5891 8.82566 47.9215C3.04603 43.3316 0.0781032 36.2524 0 26.606ZM26.3208 14.3925V2.10109H24.4463C24.0558 2.56785 23.7434 3.1124 23.431 3.57916C23.1185 4.04592 22.8061 4.51269 22.4937 5.05724C22.1813 5.524 21.7908 6.14635 21.5565 6.61311C21.2441 7.07987 21.0098 7.54663 20.7755 8.09119C20.3068 8.86912 19.9163 9.64706 19.6039 10.3472C19.2134 11.0473 18.901 11.7475 18.6667 12.3698C19.1353 12.681 19.682 13.07 20.3068 13.3034C21.0098 13.5367 21.7127 13.7701 22.4156 13.9257C23.1967 14.0813 23.8996 14.1591 24.5244 14.2369C25.2273 14.3147 25.8522 14.3925 26.3208 14.3925ZM29.6011 2.10109V14.3147C29.9916 14.3147 30.4603 14.3925 30.9289 14.3147C31.3975 14.3147 31.9442 14.2369 32.4128 14.1591C33.272 14.0035 34.2873 13.7701 35.0683 13.5367C35.9275 13.2256 36.7085 12.8366 37.2552 12.3698C36.318 10.1138 35.3026 8.32457 34.2873 6.61311C33.272 4.90165 32.1004 3.42358 30.8508 2.17888V2.10109H29.6011ZM21.166 2.80123V2.72343C20.6192 2.95681 20.0725 3.34578 19.4477 3.57916C18.901 3.81254 18.198 4.12372 17.6513 4.43489C16.5579 4.97945 15.4644 5.60179 14.371 6.30194C13.3556 7.00208 12.3403 7.78001 11.4812 8.55795C11.7936 8.86912 12.1841 9.1803 12.4965 9.41368C12.8089 9.64706 13.1994 9.95823 13.59 10.2694C13.9024 10.425 14.2929 10.6584 14.6834 10.9695C15.0739 11.2029 15.5425 11.5141 16.0112 11.8253C16.636 10.425 17.2608 8.94692 18.0418 7.62443C18.8229 6.22414 19.682 4.90165 20.5411 3.73475C20.6192 3.57916 20.6973 3.42358 20.8536 3.26799C20.9317 3.1902 21.0098 2.95681 21.166 2.80123ZM45.0656 8.55795V8.48015C43.113 7.00208 41.3947 5.75738 39.6764 4.97945C37.9582 4.20151 36.2399 3.42358 34.6778 2.80123C35.9275 4.04592 37.0209 5.60179 37.7238 7.07987C38.5049 8.63574 39.2859 10.2694 39.9107 11.8253C40.2232 11.6697 40.6137 11.5141 41.0823 11.2029C41.4728 10.9695 42.0195 10.7362 42.4881 10.5028C42.9568 10.1916 43.3473 9.88044 43.8159 9.56926C44.2845 9.1803 44.7531 8.86912 45.0656 8.55795ZM43.7378 25.9059H52.7197C52.7197 23.0275 52.0948 20.3048 50.9233 17.5042C49.8298 14.7814 48.2678 12.5254 46.3152 10.5806V10.5028C45.9247 11.1251 45.378 11.6697 44.8312 12.0587C44.2064 12.4476 43.6597 12.7588 43.0349 13.07C42.6444 13.3034 42.2538 13.6145 41.8633 13.7701C41.4728 14.0035 40.9261 14.1591 40.5356 14.3925C40.848 15.0148 41.1604 15.715 41.4728 16.3373C41.7071 17.0374 42.0976 17.8154 42.2538 18.5155C42.7225 19.7602 43.0349 21.0827 43.3473 22.4052C43.5816 23.5721 43.7378 24.8168 43.7378 25.9059ZM15.4644 14.3925V14.3147C14.8396 14.0035 14.1367 13.7701 13.59 13.4589C13.0432 13.07 12.4965 12.681 12.0279 12.3698C11.5593 12.1364 11.0907 11.8253 10.7001 11.5141C10.3096 11.2029 9.99721 10.8918 9.6848 10.5806C7.65411 12.5254 6.17015 14.7036 5.23291 17.2708C4.21757 19.838 3.51464 22.7164 3.20223 25.8281H12.8089C12.8089 23.6499 13.1213 21.5495 13.6681 19.449C14.1367 17.2708 14.8396 15.6372 15.4644 14.3925ZM26.3208 25.8281V16.8819C25.696 16.9596 24.9149 16.9596 24.212 16.8819C23.431 16.8041 22.6499 16.5707 21.947 16.3373C21.3222 16.1817 20.5411 16.0261 19.9163 15.7927C19.2134 15.6372 18.5105 15.326 17.9637 15.0148C17.4951 15.7927 17.1046 16.7263 16.7922 17.7376C16.4017 18.6711 16.1674 19.6824 15.9331 20.6159C15.7768 21.5495 15.6987 22.5608 15.6206 23.4165C15.5425 24.2722 15.4644 25.128 15.4644 25.8281H26.3208ZM29.6011 17.0374V25.8281H41.1604C41.1604 25.3613 41.1604 24.8168 41.0823 24.1944C40.9261 23.6499 40.848 22.9497 40.7699 22.3274C40.5356 21.3939 40.3013 20.3826 39.9888 19.449C39.6764 18.5933 39.364 17.7376 38.9735 17.0374C38.8173 16.6485 38.6611 16.1817 38.5049 15.8705C38.2706 15.4816 38.0363 15.2482 37.8801 15.0148C37.0209 15.6372 35.8494 16.0261 34.4435 16.3373C33.1158 16.6485 31.5537 16.9596 30.1478 17.0374H29.6011ZM12.8089 28.3953H3.20223C3.20223 29.7178 3.43654 31.1959 3.82706 32.9851C4.21757 34.8522 4.99861 36.5636 5.85774 38.4307C6.24826 39.3642 6.71688 40.2977 7.1855 41.2312C7.73222 42.0869 8.35704 43.0205 8.98187 43.8762C9.45049 43.565 9.91911 43.3316 10.3096 43.0983C10.7782 42.8649 11.325 42.5537 11.7936 42.3203C12.3403 42.0869 12.887 41.8536 13.5119 41.5424C14.0586 41.309 14.7615 40.9978 15.4644 40.6867C14.8396 38.7418 14.1367 36.8748 13.6681 34.7744C13.1213 32.7517 12.8089 30.7291 12.8089 28.4731V28.3953ZM26.3208 37.4971V28.3953H15.4644C15.4644 29.0176 15.5425 29.9512 15.6987 30.8847C15.7768 31.8182 16.0112 32.8295 16.1674 33.8408C16.4798 34.9299 16.7141 36.0191 17.0265 36.9526C17.3389 37.8861 17.6513 38.664 17.9637 39.3642C19.3696 38.8196 20.7755 38.4307 21.7127 38.1973C22.728 37.8861 23.6653 37.6527 24.6025 37.5749H25.4616C25.7741 37.4971 26.0865 37.4971 26.3208 37.4971ZM29.6011 28.3953V37.4193C30.1478 37.4971 30.7727 37.5749 31.3975 37.6527C32.1004 37.7305 32.9596 37.8861 33.6625 38.0417L34.834 38.2751C35.2245 38.4307 35.6932 38.5084 36.0837 38.5862C36.5523 38.7418 37.0209 38.8196 37.4895 38.9752C37.8801 39.1308 38.2706 39.2086 38.583 39.3642C39.5983 36.797 40.2232 34.6966 40.6137 32.9073C41.0042 31.1959 41.1604 29.7178 41.1604 28.4731V28.3953H29.6011ZM52.7197 28.4731V28.3953H43.7378V28.8621C43.6597 30.3401 43.4254 32.0516 43.113 33.8408C42.8006 35.5523 42.0976 37.5749 41.1604 40.0643C42.41 40.6867 43.5816 41.309 44.5188 41.9314C45.4561 42.5537 46.3152 43.2539 46.94 43.8762C48.2678 42.5537 49.4393 40.7645 50.4547 38.4307C51.47 36.1746 52.1729 33.8408 52.5635 31.3514C52.6416 30.8847 52.6416 30.4179 52.7197 29.9512V28.4731ZM26.3208 52.1223V39.9865C24.3682 40.2977 22.728 40.6867 21.4784 40.9978C20.2287 41.309 19.2915 41.6202 18.6667 41.9314C19.1353 43.0983 19.6039 44.1096 20.0725 45.0431C20.5411 45.8988 21.0879 46.8324 21.5565 47.6103C21.7127 47.9215 22.0251 48.2326 22.2594 48.6216C22.4937 48.9328 22.6499 49.3217 22.8842 49.6329C23.1185 50.0219 23.3529 50.4886 23.5872 50.9554C23.8996 51.3444 24.1339 51.8111 24.4463 52.1223H26.3208ZM29.6011 52.1223H31.3975C32.1004 51.5778 32.8033 50.7998 33.3501 49.9441C33.9749 49.0884 34.6778 48.077 35.1464 47.2213C35.6932 46.21 36.2399 45.2765 36.7085 44.343C37.1771 43.4094 37.5676 42.5537 37.8801 41.9314C37.0209 41.6202 35.8494 41.309 34.6778 40.9978C33.5063 40.6867 31.8661 40.3755 29.6011 40.0643V52.1223ZM45.0656 45.7432V45.6654C44.9093 45.4321 44.5969 45.1209 44.3626 44.8875C44.1283 44.6541 43.7378 44.343 43.3473 44.1096C43.0349 43.8762 42.6444 43.6428 42.1757 43.4094C41.7071 43.1761 41.0823 42.8649 40.5356 42.5537C40.2232 43.1761 39.6764 44.2652 38.8954 45.7432C38.1925 47.2213 36.9428 49.0106 35.3808 50.9554C37.3333 50.6442 39.0516 49.9441 40.6137 49.0106C42.3319 48.1548 43.8159 46.9879 45.0656 45.7432ZM16.0112 43.2539V43.1761C15.4644 43.4872 14.6053 43.8762 13.7462 44.2652C12.8089 44.6541 11.7936 45.1209 10.8563 45.7432C11.4031 46.21 11.9498 46.6768 12.4184 46.9879C12.887 47.3769 13.4338 47.6881 13.9024 47.9993C14.7615 48.5438 15.7768 49.0884 16.7922 49.5551C17.8075 50.0219 19.0572 50.4886 20.6192 50.9554C20.0725 50.3331 19.682 49.5551 19.2915 48.9328C18.901 48.3104 18.4324 47.6881 18.0418 47.0657C17.6513 46.4434 17.3389 45.7432 17.0265 45.1209C16.636 44.4985 16.3236 43.8762 16.0112 43.2539Z" fill="#4D4949"/>
</g>
<defs>
<clipPath id="clip0">
<rect width="56" height="55" fill="white"/>
</clipPath>
</defs>
</svg>
